  0
SECTION
  2
HEADER
  9
$ACADVER
  1
AC1014
  9
$ACADMAINTVER
 70
     9
  9
$DWGCODEPAGE
  3
UNDEFINED
  9
$INSBASE
 10
0.0
 20
0.0
 30
0.0
  9
$EXTMIN
 10
1.000000000000000E+20
 20
1.000000000000000E+20
 30
1.000000000000000E+20
  9
$EXTMAX
 10
-1.000000000000000E+20
 20
-1.000000000000000E+20
 30
-1.000000000000000E+20
  9
$LIMMIN
 10
0.0
 20
0.0
  9
$LIMMAX
 10
12.0
 20
9.0
  9
$ORTHOMODE
 70
     0
  9
$REGENMODE
 70
     1
  9
$FILLMODE
 70
     1
  9
$QTEXTMODE
 70
     0
  9
$MIRRTEXT
 70
     1
  9
$DRAGMODE
 70
     2
  9
$LTSCALE
 40
1.0
  9
$OSMODE
 70
    37
  9
$ATTMODE
 70
     1
  9
$TEXTSIZE
 40
0.2
  9
$TRACEWID
 40
0.05
  9
$TEXTSTYLE
  7
STANDARD
  9
$CLAYER
  8
0
  9
$CELTYPE
  6
BYLAYER
  9
$CECOLOR
 62
   256
  9
$CELTSCALE
 40
1.0
  9
$DELOBJ
 70
     1
  9
$DISPSILH
 70
     0
  9
$DIMSCALE
 40
1.0
  9
$DIMASZ
 40
0.18
  9
$DIMEXO
 40
0.0625
  9
$DIMDLI
 40
0.38
  9
$DIMRND
 40
0.0
  9
$DIMDLE
 40
0.0
  9
$DIMEXE
 40
0.18
  9
$DIMTP
 40
0.0
  9
$DIMTM
 40
0.0
  9
$DIMTXT
 40
0.18
  9
$DIMCEN
 40
0.09
  9
$DIMTSZ
 40
0.0
  9
$DIMTOL
 70
     0
  9
$DIMLIM
 70
     0
  9
$DIMTIH
 70
     1
  9
$DIMTOH
 70
     1
  9
$DIMSE1
 70
     0
  9
$DIMSE2
 70
     0
  9
$DIMTAD
 70
     0
  9
$DIMZIN
 70
     0
  9
$DIMBLK
  1

  9
$DIMASO
 70
     1
  9
$DIMSHO
 70
     1
  9
$DIMPOST
  1

  9
$DIMAPOST
  1

  9
$DIMALT
 70
     0
  9
$DIMALTD
 70
     2
  9
$DIMALTF
 40
25.4
  9
$DIMLFAC
 40
1.0
  9
$DIMTOFL
 70
     0
  9
$DIMTVP
 40
0.0
  9
$DIMTIX
 70
     0
  9
$DIMSOXD
 70
     0
  9
$DIMSAH
 70
     0
  9
$DIMBLK1
  1

  9
$DIMBLK2
  1

  9
$DIMSTYLE
  2
STANDARD
  9
$DIMCLRD
 70
     0
  9
$DIMCLRE
 70
     0
  9
$DIMCLRT
 70
     0
  9
$DIMTFAC
 40
1.0
  9
$DIMGAP
 40
0.09
  9
$DIMJUST
 70
     0
  9
$DIMSD1
 70
     0
  9
$DIMSD2
 70
     0
  9
$DIMTOLJ
 70
     1
  9
$DIMTZIN
 70
     0
  9
$DIMALTZ
 70
     0
  9
$DIMALTTZ
 70
     0
  9
$DIMFIT
 70
     3
  9
$DIMUPT
 70
     0
  9
$DIMUNIT
 70
     2
  9
$DIMDEC
 70
     4
  9
$DIMTDEC
 70
     4
  9
$DIMALTU
 70
     2
  9
$DIMALTTD
 70
     2
  9
$DIMTXSTY
  7
STANDARD
  9
$DIMAUNIT
 70
     0
  9
$LUNITS
 70
     2
  9
$LUPREC
 70
     4
  9
$SKETCHINC
 40
0.1
  9
$FILLETRAD
 40
0.5
  9
$AUNITS
 70
     0
  9
$AUPREC
 70
     0
  9
$MENU
  1
.
  9
$ELEVATION
 40
0.0
  9
$PELEVATION
 40
0.0
  9
$THICKNESS
 40
0.0
  9
$LIMCHECK
 70
     0
  9
$CHAMFERA
 40
0.5
  9
$CHAMFERB
 40
0.5
  9
$CHAMFERC
 40
1.0
  9
$CHAMFERD
 40
0.0
  9
$SKPOLY
 70
     0
  9
$TDCREATE
 40
2459099.758703692
  9
$TDUPDATE
 40
2459099.758703692
  9
$TDINDWG
 40
0.0000000116
  9
$TDUSRTIMER
 40
0.0000000116
  9
$USRTIMER
 70
     1
  9
$ANGBASE
 50
0.0
  9
$ANGDIR
 70
     0
  9
$PDMODE
 70
     0
  9
$PDSIZE
 40
0.0
  9
$PLINEWID
 40
0.0
  9
$COORDS
 70
     1
  9
$SPLFRAME
 70
     0
  9
$SPLINETYPE
 70
     6
  9
$SPLINESEGS
 70
     8
  9
$ATTDIA
 70
     0
  9
$ATTREQ
 70
     1
  9
$HANDLING
 70
     1
  9
$HANDSEED
  5
D1
  9
$SURFTAB1
 70
     6
  9
$SURFTAB2
 70
     6
  9
$SURFTYPE
 70
     6
  9
$SURFU
 70
     6
  9
$SURFV
 70
     6
  9
$UCSNAME
  2

  9
$UCSORG
 10
0.0
 20
0.0
 30
0.0
  9
$UCSXDIR
 10
1.0
 20
0.0
 30
0.0
  9
$UCSYDIR
 10
0.0
 20
1.0
 30
0.0
  9
$PUCSNAME
  2

  9
$PUCSORG
 10
0.0
 20
0.0
 30
0.0
  9
$PUCSXDIR
 10
1.0
 20
0.0
 30
0.0
  9
$PUCSYDIR
 10
0.0
 20
1.0
 30
0.0
  9
$USERI1
 70
     0
  9
$USERI2
 70
     0
  9
$USERI3
 70
     0
  9
$USERI4
 70
     0
  9
$USERI5
 70
     0
  9
$USERR1
 40
0.0
  9
$USERR2
 40
0.0
  9
$USERR3
 40
0.0
  9
$USERR4
 40
0.0
  9
$USERR5
 40
0.0
  9
$WORLDVIEW
 70
     1
  9
$SHADEDGE
 70
     3
  9
$SHADEDIF
 70
    70
  9
$TILEMODE
 70
     1
  9
$MAXACTVP
 70
    64
  9
$PINSBASE
 10
0.0
 20
0.0
 30
0.0
  9
$PLIMCHECK
 70
     0
  9
$PEXTMIN
 10
1.000000000000000E+20
 20
1.000000000000000E+20
 30
1.000000000000000E+20
  9
$PEXTMAX
 10
-1.000000000000000E+20
 20
-1.000000000000000E+20
 30
-1.000000000000000E+20
  9
$PLIMMIN
 10
0.0
 20
0.0
  9
$PLIMMAX
 10
12.0
 20
9.0
  9
$UNITMODE
 70
     0
  9
$VISRETAIN
 70
     1
  9
$PLINEGEN
 70
     0
  9
$PSLTSCALE
 70
     1
  9
$TREEDEPTH
 70
  3020
  9
$PICKSTYLE
 70
     1
  9
$CMLSTYLE
  2
STANDARD
  9
$CMLJUST
 70
     0
  9
$CMLSCALE
 40
1.0
  9
$PROXYGRAPHICS
 70
     1
  9
$MEASUREMENT
 70
     0
  0
ENDSEC
  0
SECTION
  2
CLASSES
  0
CLASS
  1
ACDBDICTIONARYWDFLT
  2
AcDbDictionaryWithDefault
  3
ObjectDBX Classes
 90
        0
280
     0
281
     0
  0
CLASS
  1
VISUALSTYLE
  2
AcDbVisualStyle
  3
ObjectDBX Classes
 90
     4095
280
     0
281
     0
  0
CLASS
  1
MATERIAL
  2
AcDbMaterial
  3
ObjectDBX Classes
 90
     1153
280
     0
281
     0
  0
CLASS
  1
SUN
  2
AcDbSun
  3
SCENEOE
 90
     1024
280
     0
281
     0
  0
CLASS
  1
DICTIONARYVAR
  2
AcDbDictionaryVar
  3
ObjectDBX Classes
 90
        0
280
     0
281
     0
  0
CLASS
  1
XRECORD
  2
AcDbXrecord
  3
AutoCAD 2000
 90
        0
280
     0
281
     0
  0
CLASS
  1
LWPOLYLINE
  2
AcDbPolyline
  3
AutoCAD 2000
 90
        0
280
     0
281
     1
  0
CLASS
  1
HATCH
  2
AcDbHatch
  3
AutoCAD 2000
 90
        0
280
     0
281
     1
  0
CLASS
  1
ACDBPLACEHOLDER
  2
AcDbPlaceHolder
  3
ObjectDBX Classes
 90
        0
280
     0
281
     0
  0
CLASS
  1
LAYOUT
  2
AcDbLayout
  3
ObjectDBX Classes
 90
        0
280
     0
281
     0
  0
ENDSEC
  0
SECTION
  2
TABLES
  0
TABLE
  2
VPORT
  5
8
330
0
100
AcDbSymbolTable
 70
     1
  0
VPORT
  5
29
330
8
100
AcDbSymbolTableRecord
100
AcDbViewportTableRecord
  2
*ACTIVE
 70
     0
 10
0.0
 20
0.0
 11
1.0
 21
1.0
 12
0.0
 22
0.0
 13
0.0
 23
0.0
 14
0.5
 24
0.5
 15
0.5
 25
0.5
 16
0.0
 26
0.0
 36
1.0
 17
213.4305555021979
 27
299.8611110361459
 37
0.0
 40
101.5999999746
 41
2.291666666666667
 42
50.0
 43
0.0
 44
0.0
 50
0.0
 51
0.0
 71
     0
 72
   100
 73
     1
 74
     3
 75
     0
 76
     0
 77
     0
 78
     0
  0
ENDTAB
  0
TABLE
  2
LTYPE
  5
5
330
0
100
AcDbSymbolTable
 70
     1
  0
LTYPE
  5
14
330
5
100
AcDbSymbolTableRecord
100
AcDbLinetypeTableRecord
  2
BYBLOCK
 70
     0
  3

 72
    65
 73
     0
 40
0.0
  0
LTYPE
  5
15
330
5
100
AcDbSymbolTableRecord
100
AcDbLinetypeTableRecord
  2
BYLAYER
 70
     0
  3

 72
    65
 73
     0
 40
0.0
  0
LTYPE
  5
16
330
5
100
AcDbSymbolTableRecord
100
AcDbLinetypeTableRecord
  2
CONTINUOUS
 70
     0
  3
Solid line
 72
    65
 73
     0
 40
0.0
  0
ENDTAB
  0
TABLE
  2
LAYER
  5
2
330
0
100
AcDbSymbolTable
 70
     3
  0
LAYER
  5
10
330
2
100
AcDbSymbolTableRecord
100
AcDbLayerTableRecord
  2
0
 70
     0
 62
     7
  6
CONTINUOUS
  0
LAYER
  5
40
330
2
100
AcDbSymbolTableRecord
100
AcDbLayerTableRecord
  2
CAPA_1
 70
     0
 62
     7
  6
CONTINUOUS
  0
LAYER
  5
41
330
2
100
AcDbSymbolTableRecord
100
AcDbLayerTableRecord
  2
CAPA_2
 70
     0
 62
     7
  6
CONTINUOUS
  0
ENDTAB
  0
TABLE
  2
STYLE
  5
3
330
0
100
AcDbSymbolTable
 70
     1
  0
STYLE
  5
11
330
3
100
AcDbSymbolTableRecord
100
AcDbTextStyleTableRecord
  2
STANDARD
 70
     0
 40
0.0
 41
1.0
 50
0.0
 71
     0
 42
0.2
  3
txt
  4

  0
ENDTAB
  0
TABLE
  2
VIEW
  5
6
330
0
100
AcDbSymbolTable
 70
     0
  0
ENDTAB
  0
TABLE
  2
UCS
  5
7
330
0
100
AcDbSymbolTable
 70
     0
  0
ENDTAB
  0
TABLE
  2
APPID
  5
9
330
0
100
AcDbSymbolTable
 70
     1
  0
APPID
  5
12
330
9
100
AcDbSymbolTableRecord
100
AcDbRegAppTableRecord
  2
ACAD
 70
     0
  0
ENDTAB
  0
TABLE
  2
DIMSTYLE
  5
A
330
0
100
AcDbSymbolTable
 70
     1
  0
DIMSTYLE
105
27
330
A
100
AcDbSymbolTableRecord
100
AcDbDimStyleTableRecord
  2
STANDARD
 70
     0
  3

  4

  5

  6

  7

 40
1.0
 41
0.18
 42
0.0625
 43
0.38
 44
0.18
 45
0.0
 46
0.0
 47
0.0
 48
0.0
140
0.18
141
0.09
142
0.0
143
25.4
144
1.0
145
0.0
146
1.0
147
0.09
 71
     0
 72
     0
 73
     1
 74
     1
 75
     0
 76
     0
 77
     0
 78
     0
170
     0
171
     2
172
     0
173
     0
174
     0
175
     0
176
     0
177
     0
178
     0
270
     2
271
     4
272
     4
273
     2
274
     2
340
11
275
     0
280
     0
281
     0
282
     0
283
     1
284
     0
285
     0
286
     0
287
     3
288
     0
  0
ENDTAB
  0
TABLE
  2
BLOCK_RECORD
  5
1
330
0
100
AcDbSymbolTable
 70
     4
  0
BLOCK_RECORD
  5
1F
330
1
100
AcDbSymbolTableRecord
100
AcDbBlockTableRecord
  2
*MODEL_SPACE
  0
BLOCK_RECORD
  5
1B
330
1
100
AcDbSymbolTableRecord
100
AcDbBlockTableRecord
  2
*PAPER_SPACE
  0
BLOCK_RECORD
  5
42
330
1
100
AcDbSymbolTableRecord
100
AcDbBlockTableRecord
  2
BLOCK_2
  0
BLOCK_RECORD
  5
9A
330
1
100
AcDbSymbolTableRecord
100
AcDbBlockTableRecord
  2
BLOCK_3
  0
BLOCK_RECORD
  5
A0
330
1
100
AcDbSymbolTableRecord
100
AcDbBlockTableRecord
  2
BLOCK_4
  0
ENDTAB
  0
ENDSEC
  0
SECTION
  2
BLOCKS
  0
BLOCK
  5
20
330
1F
100
AcDbEntity
  8
0
100
AcDbBlockBegin
  2
*MODEL_SPACE
 70
     0
 10
0.0
 20
0.0
 30
0.0
  3
*MODEL_SPACE
  1

  0
ENDBLK
  5
21
330
1F
100
AcDbEntity
  8
0
100
AcDbBlockEnd
  0
BLOCK
  5
1C
330
1B
100
AcDbEntity
 67
     1
  8
0
100
AcDbBlockBegin
  2
*PAPER_SPACE
 70
     0
 10
0.0
 20
0.0
 30
0.0
  3
*PAPER_SPACE
  1

  0
ENDBLK
  5
1D
330
1B
100
AcDbEntity
 67
     1
  8
0
100
AcDbBlockEnd
  0
BLOCK
  5
44
330
42
100
AcDbEntity
  8
0
100
AcDbBlockBegin
  2
BLOCK_2
 70
     0
 10
0.0
 20
0.0
 30
0.0
  3
BLOCK_2
  1

  0
POLYLINE
  5
46
330
42
100
AcDbEntity
  8
CAPA_2
100
AcDb2dPolyline
 66
     1
 10
0.0
 20
0.0
 30
0.0
  0
VERTEX
  5
47
330
46
100
AcDbEntity
  8
CAPA_2
100
AcDbVertex
100
AcDb2dVertex
 10
113.4498042352823
 20
335.1671170562365
 30
0.0
  0
VERTEX
  5
48
330
46
100
AcDbEntity
  8
CAPA_2
100
AcDbVertex
100
AcDb2dVertex
 10
113.4498042352823
 20
264.3857785729552
 30
0.0
  0
SEQEND
  5
49
330
46
100
AcDbEntity
  8
CAPA_2
  0
POLYLINE
  5
4A
330
42
100
AcDbEntity
  8
CAPA_2
100
AcDb2dPolyline
 66
     1
 10
0.0
 20
0.0
 30
0.0
  0
VERTEX
  5
4B
330
4A
100
AcDbEntity
  8
CAPA_2
100
AcDbVertex
100
AcDb2dVertex
 10
113.4498042352823
 20
264.3857785729552
 30
0.0
  0
VERTEX
  5
4C
330
4A
100
AcDbEntity
  8
CAPA_2
100
AcDbVertex
100
AcDb2dVertex
 10
113.4921358460573
 20
263.9836067387459
 30
0.0
  0
VERTEX
  5
4D
330
4A
100
AcDbEntity
  8
CAPA_2
100
AcDbVertex
100
AcDb2dVertex
 10
113.5979648729948
 20
263.6237880471583
 30
0.0
  0
VERTEX
  5
4E
330
4A
100
AcDbEntity
  8
CAPA_2
100
AcDbVertex
100
AcDb2dVertex
 10
113.7884678874058
 20
263.263947823724
 30
0.0
  0
VERTEX
  5
4F
330
4A
100
AcDbEntity
  8
CAPA_2
100
AcDbVertex
100
AcDb2dVertex
 10
114.0424683179792
 20
262.9676265482989
 30
0.0
  0
VERTEX
  5
50
330
4A
100
AcDbEntity
  8
CAPA_2
100
AcDbVertex
100
AcDb2dVertex
 10
114.3388003593276
 20
262.7136153518021
 30
0.0
  0
VERTEX
  5
51
330
4A
100
AcDbEntity
  8
CAPA_2
100
AcDbVertex
100
AcDb2dVertex
 10
114.698640582762
 20
262.5231231033146
 30
0.0
  0
VERTEX
  5
52
330
4A
100
AcDbEntity
  8
CAPA_2
100
AcDbVertex
100
AcDb2dVertex
 10
115.0584700402729
 20
262.417294076377
 30
0.0
  0
VERTEX
  5
53
330
4A
100
AcDbEntity
  8
CAPA_2
100
AcDbVertex
100
AcDb2dVertex
 10
115.4606418744823
 20
262.3749409337552
 30
0.0
  0
SEQEND
  5
54
330
4A
100
AcDbEntity
  8
CAPA_2
  0
POLYLINE
  5
55
330
42
100
AcDbEntity
  8
CAPA_2
100
AcDb2dPolyline
 66
     1
 10
0.0
 20
0.0
 30
0.0
  0
VERTEX
  5
56
330
55
100
AcDbEntity
  8
CAPA_2
100
AcDbVertex
100
AcDb2dVertex
 10
115.4606418744823
 20
262.3749409337552
 30
0.0
  0
VERTEX
  5
57
330
55
100
AcDbEntity
  8
CAPA_2
100
AcDbVertex
100
AcDb2dVertex
 10
311.3158059083635
 20
262.3749409337552
 30
0.0
  0
SEQEND
  5
58
330
55
100
AcDbEntity
  8
CAPA_2
  0
POLYLINE
  5
59
330
42
100
AcDbEntity
  8
CAPA_2
100
AcDb2dPolyline
 66
     1
 10
0.0
 20
0.0
 30
0.0
  0
VERTEX
  5
5A
330
59
100
AcDbEntity
  8
CAPA_2
100
AcDbVertex
100
AcDb2dVertex
 10
311.3158059083635
 20
262.3749409337552
 30
0.0
  0
VERTEX
  5
5B
330
59
100
AcDbEntity
  8
CAPA_2
100
AcDbVertex
100
AcDb2dVertex
 10
311.6756245999511
 20
262.3961067391427
 30
0.0
  0
VERTEX
  5
5C
330
59
100
AcDbEntity
  8
CAPA_2
100
AcDbVertex
100
AcDb2dVertex
 10
312.0354648233854
 20
262.501957297927
 30
0.0
  0
VERTEX
  5
5D
330
59
100
AcDbEntity
  8
CAPA_2
100
AcDbVertex
100
AcDb2dVertex
 10
312.3529734360448
 20
262.6501179356396
 30
0.0
  0
VERTEX
  5
5E
330
59
100
AcDbEntity
  8
CAPA_2
100
AcDbVertex
100
AcDb2dVertex
 10
312.6492947114698
 20
262.8617759895146
 30
0.0
  0
VERTEX
  5
5F
330
59
100
AcDbEntity
  8
CAPA_2
100
AcDbVertex
100
AcDb2dVertex
 10
312.9244717133542
 20
263.1157871860114
 30
0.0
  0
VERTEX
  5
60
330
59
100
AcDbEntity
  8
CAPA_2
100
AcDbVertex
100
AcDb2dVertex
 10
313.1149639618417
 20
263.4121084614365
 30
0.0
  0
VERTEX
  5
61
330
59
100
AcDbEntity
  8
CAPA_2
100
AcDbVertex
100
AcDb2dVertex
 10
313.2842904049418
 20
263.7507828794833
 30
0.0
  0
VERTEX
  5
62
330
59
100
AcDbEntity
  8
CAPA_2
100
AcDbVertex
100
AcDb2dVertex
 10
313.3689751583386
 20
264.0894572975301
 30
0.0
  0
VERTEX
  5
63
330
59
100
AcDbEntity
  8
CAPA_2
100
AcDbVertex
100
AcDb2dVertex
 10
313.4113067691135
 20
264.4704417945052
 30
0.0
  0
SEQEND
  5
64
330
59
100
AcDbEntity
  8
CAPA_2
  0
POLYLINE
  5
65
330
42
100
AcDbEntity
  8
CAPA_2
100
AcDb2dPolyline
 66
     1
 10
0.0
 20
0.0
 30
0.0
  0
VERTEX
  5
66
330
65
100
AcDbEntity
  8
CAPA_2
100
AcDbVertex
100
AcDb2dVertex
 10
313.4113067691135
 20
264.4704417945052
 30
0.0
  0
VERTEX
  5
67
330
65
100
AcDbEntity
  8
CAPA_2
100
AcDbVertex
100
AcDb2dVertex
 10
313.4113067691135
 20
335.1671170562365
 30
0.0
  0
SEQEND
  5
68
330
65
100
AcDbEntity
  8
CAPA_2
  0
POLYLINE
  5
69
330
42
100
AcDbEntity
  8
CAPA_2
100
AcDb2dPolyline
 66
     1
 10
0.0
 20
0.0
 30
0.0
  0
VERTEX
  5
6A
330
69
100
AcDbEntity
  8
CAPA_2
100
AcDbVertex
100
AcDb2dVertex
 10
313.4113067691135
 20
335.1671170562365
 30
0.0
  0
VERTEX
  5
6B
330
69
100
AcDbEntity
  8
CAPA_2
100
AcDbVertex
100
AcDb2dVertex
 10
313.3689751583386
 20
335.5481230850583
 30
0.0
  0
VERTEX
  5
6C
330
69
100
AcDbEntity
  8
CAPA_2
100
AcDbVertex
100
AcDb2dVertex
 10
313.2842904049418
 20
335.9079417766459
 30
0.0
  0
VERTEX
  5
6D
330
69
100
AcDbEntity
  8
CAPA_2
100
AcDbVertex
100
AcDb2dVertex
 10
313.1149639618417
 20
336.2466161946927
 30
0.0
  0
VERTEX
  5
6E
330
69
100
AcDbEntity
  8
CAPA_2
100
AcDbVertex
100
AcDb2dVertex
 10
312.9033059079667
 20
336.564124807352
 30
0.0
  0
VERTEX
  5
6F
330
69
100
AcDbEntity
  8
CAPA_2
100
AcDbVertex
100
AcDb2dVertex
 10
312.6281289060823
 20
336.8392802773896
 30
0.0
  0
VERTEX
  5
70
330
69
100
AcDbEntity
  8
CAPA_2
100
AcDbVertex
100
AcDb2dVertex
 10
312.3106418252698
 20
337.0509383312646
 30
0.0
  0
VERTEX
  5
71
330
69
100
AcDbEntity
  8
CAPA_2
100
AcDbVertex
100
AcDb2dVertex
 10
311.971967407223
 20
337.2202863062114
 30
0.0
  0
VERTEX
  5
72
330
69
100
AcDbEntity
  8
CAPA_2
100
AcDbVertex
100
AcDb2dVertex
 10
311.6121271837886
 20
337.3049495277614
 30
0.0
  0
VERTEX
  5
73
330
69
100
AcDbEntity
  8
CAPA_2
100
AcDbVertex
100
AcDb2dVertex
 10
311.2311426868135
 20
337.3472811385365
 30
0.0
  0
SEQEND
  5
74
330
69
100
AcDbEntity
  8
CAPA_2
  0
POLYLINE
  5
75
330
42
100
AcDbEntity
  8
CAPA_2
100
AcDb2dPolyline
 66
     1
 10
0.0
 20
0.0
 30
0.0
  0
VERTEX
  5
76
330
75
100
AcDbEntity
  8
CAPA_2
100
AcDbVertex
100
AcDb2dVertex
 10
311.2311426868135
 20
337.3472811385365
 30
0.0
  0
VERTEX
  5
77
330
75
100
AcDbEntity
  8
CAPA_2
100
AcDbVertex
100
AcDb2dVertex
 10
115.6088025121948
 20
337.3472811385365
 30
0.0
  0
SEQEND
  5
78
330
75
100
AcDbEntity
  8
CAPA_2
  0
POLYLINE
  5
79
330
42
100
AcDbEntity
  8
CAPA_2
100
AcDb2dPolyline
 66
     1
 10
0.0
 20
0.0
 30
0.0
  0
VERTEX
  5
7A
330
79
100
AcDbEntity
  8
CAPA_2
100
AcDbVertex
100
AcDb2dVertex
 10
115.6088025121948
 20
337.3472811385365
 30
0.0
  0
VERTEX
  5
7B
330
79
100
AcDbEntity
  8
CAPA_2
100
AcDbVertex
100
AcDb2dVertex
 10
115.1854648725979
 20
337.3049495277614
 30
0.0
  0
VERTEX
  5
7C
330
79
100
AcDbEntity
  8
CAPA_2
100
AcDbVertex
100
AcDb2dVertex
 10
114.783303804312
 20
337.1779546954364
 30
0.0
  0
VERTEX
  5
7D
330
79
100
AcDbEntity
  8
CAPA_2
100
AcDbVertex
100
AcDb2dVertex
 10
114.4023085414135
 20
336.9662751097146
 30
0.0
  0
VERTEX
  5
7E
330
79
100
AcDbEntity
  8
CAPA_2
100
AcDbVertex
100
AcDb2dVertex
 10
114.0847999287542
 20
336.7122854450645
 30
0.0
  0
VERTEX
  5
7F
330
79
100
AcDbEntity
  8
CAPA_2
100
AcDbVertex
100
AcDb2dVertex
 10
113.8096336927933
 20
336.3736110270177
 30
0.0
  0
VERTEX
  5
80
330
79
100
AcDbEntity
  8
CAPA_2
100
AcDbVertex
100
AcDb2dVertex
 10
113.6191414443057
 20
336.0137923354301
 30
0.0
  0
VERTEX
  5
81
330
79
100
AcDbEntity
  8
CAPA_2
100
AcDbVertex
100
AcDb2dVertex
 10
113.4921358460573
 20
335.5904546958333
 30
0.0
  0
VERTEX
  5
82
330
79
100
AcDbEntity
  8
CAPA_2
100
AcDbVertex
100
AcDb2dVertex
 10
113.4498042352823
 20
335.1671170562365
 30
0.0
  0
SEQEND
  5
83
330
79
100
AcDbEntity
  8
CAPA_2
  0
SPLINE
  5
84
330
42
100
AcDbEntity
  8
CAPA_2
100
AcDbSpline
210
0.0
220
0.0
230
1.0
 70
    11
 71
     3
 72
    17
 73
    13
 74
     0
 42
0.0000000001
 43
0.0000000001
 12
1.0
 22
0.0
 32
0.0
 13
1.0
 23
0.0
 33
0.0
 40
0.0
 40
0.0
 40
0.0
 40
0.0
 40
1.0
 40
1.0
 40
1.0
 40
2.0
 40
2.0
 40
2.0
 40
3.0
 40
3.0
 40
3.0
 40
4.0
 40
4.0
 40
4.0
 40
4.0
 10
312.3953050468198
 20
265.3806144898614
 30
0.0
 10
312.3953050468198
 20
264.2817582211475
 30
0.0
 10
311.5045110135681
 20
263.390942656049
 30
0.0
 10
310.4056332130073
 20
263.390942656049
 30
0.0
 10
309.3067554124465
 20
263.390942656049
 30
0.0
 10
308.4159613791949
 20
264.2817582211475
 30
0.0
 10
308.4159613791949
 20
265.3806144898614
 30
0.0
 10
308.4159613791949
 20
266.4794922904222
 30
0.0
 10
309.3067554124465
 20
267.370286323674
 30
0.0
 10
310.4056332130073
 20
267.370286323674
 30
0.0
 10
311.5045110135681
 20
267.370286323674
 30
0.0
 10
312.3953050468198
 20
266.4794922904222
 30
0.0
 10
312.3953050468198
 20
265.3806144898614
 30
0.0
  0
SPLINE
  5
85
330
42
100
AcDbEntity
  8
CAPA_2
100
AcDbSpline
210
0.0
220
0.0
230
1.0
 70
    11
 71
     3
 72
    17
 73
    13
 74
     0
 42
0.0000000001
 43
0.0000000001
 12
1.0
 22
0.0
 32
0.0
 13
1.0
 23
0.0
 33
0.0
 40
0.0
 40
0.0
 40
0.0
 40
0.0
 40
1.0
 40
1.0
 40
1.0
 40
2.0
 40
2.0
 40
2.0
 40
3.0
 40
3.0
 40
3.0
 40
4.0
 40
4.0
 40
4.0
 40
4.0
 10
312.3953050468198
 20
265.3806144898614
 30
0.0
 10
312.3953050468198
 20
264.2817582211475
 30
0.0
 10
311.5045110135681
 20
263.390942656049
 30
0.0
 10
310.4056332130073
 20
263.390942656049
 30
0.0
 10
309.3067554124465
 20
263.390942656049
 30
0.0
 10
308.4159613791949
 20
264.2817582211475
 30
0.0
 10
308.4159613791949
 20
265.3806144898614
 30
0.0
 10
308.4159613791949
 20
266.4794922904222
 30
0.0
 10
309.3067554124465
 20
267.370286323674
 30
0.0
 10
310.4056332130073
 20
267.370286323674
 30
0.0
 10
311.5045110135681
 20
267.370286323674
 30
0.0
 10
312.3953050468198
 20
266.4794922904222
 30
0.0
 10
312.3953050468198
 20
265.3806144898614
 30
0.0
  0
SPLINE
  5
86
330
42
100
AcDbEntity
  8
CAPA_2
100
AcDbSpline
210
0.0
220
0.0
230
1.0
 70
    11
 71
     3
 72
    17
 73
    13
 74
     0
 42
0.0000000001
 43
0.0000000001
 12
1.0
 22
0.0
 32
0.0
 13
1.0
 23
0.0
 33
0.0
 40
0.0
 40
0.0
 40
0.0
 40
0.0
 40
1.0
 40
1.0
 40
1.0
 40
2.0
 40
2.0
 40
2.0
 40
3.0
 40
3.0
 40
3.0
 40
4.0
 40
4.0
 40
4.0
 40
4.0
 10
174.7272977604089
 20
268.3651222405801
 30
0.0
 10
174.7272977604089
 20
267.4532915930217
 30
0.0
 10
173.9881202262784
 20
266.7141248248145
 30
0.0
 10
173.0763003446433
 20
266.7141248248145
 30
0.0
 10
172.1644804630081
 20
266.7141248248145
 30
0.0
 10
171.4253029288776
 20
267.4532915930217
 30
0.0
 10
171.4253029288776
 20
268.3651222405801
 30
0.0
 10
171.4253029288776
 20
269.2769313562919
 30
0.0
 10
172.1644804630081
 20
270.0161196563458
 30
0.0
 10
173.0763003446433
 20
270.0161196563458
 30
0.0
 10
173.9881202262784
 20
270.0161196563458
 30
0.0
 10
174.7272977604089
 20
269.2769313562919
 30
0.0
 10
174.7272977604089
 20
268.3651222405801
 30
0.0
  0
SPLINE
  5
87
330
42
100
AcDbEntity
  8
CAPA_2
100
AcDbSpline
210
0.0
220
0.0
230
1.0
 70
    11
 71
     3
 72
    17
 73
    13
 74
     0
 42
0.0000000001
 43
0.0000000001
 12
1.0
 22
0.0
 32
0.0
 13
1.0
 23
0.0
 33
0.0
 40
0.0
 40
0.0
 40
0.0
 40
0.0
 40
1.0
 40
1.0
 40
1.0
 40
2.0
 40
2.0
 40
2.0
 40
3.0
 40
3.0
 40
3.0
 40
4.0
 40
4.0
 40
4.0
 40
4.0
 10
174.7272977604089
 20
268.3651222405801
 30
0.0
 10
174.7272977604089
 20
267.4532915930217
 30
0.0
 10
173.9881202262784
 20
266.7141248248145
 30
0.0
 10
173.0763003446433
 20
266.7141248248145
 30
0.0
 10
172.1644804630081
 20
266.7141248248145
 30
0.0
 10
171.4253029288776
 20
267.4532915930217
 30
0.0
 10
171.4253029288776
 20
268.3651222405801
 30
0.0
 10
171.4253029288776
 20
269.2769313562919
 30
0.0
 10
172.1644804630081
 20
270.0161196563458
 30
0.0
 10
173.0763003446433
 20
270.0161196563458
 30
0.0
 10
173.9881202262784
 20
270.0161196563458
 30
0.0
 10
174.7272977604089
 20
269.2769313562919
 30
0.0
 10
174.7272977604089
 20
268.3651222405801
 30
0.0
  0
SPLINE
  5
88
330
42
100
AcDbEntity
  8
CAPA_2
 62
     7
100
AcDbSpline
210
0.0
220
0.0
230
1.0
 70
    11
 71
     3
 72
    17
 73
    13
 74
     0
 42
0.0000000001
 43
0.0000000001
 12
1.0
 22
0.0
 32
0.0
 13
1.0
 23
0.0
 33
0.0
 40
0.0
 40
0.0
 40
0.0
 40
0.0
 40
1.0
 40
1.0
 40
1.0
 40
2.0
 40
2.0
 40
2.0
 40
3.0
 40
3.0
 40
3.0
 40
4.0
 40
4.0
 40
4.0
 40
4.0
 10
303.6534613803855
 20
312.5187794221958
 30
0.0
 10
303.6534613803855
 20
311.6069703064841
 30
0.0
 10
302.9142946121784
 20
310.8677820064302
 30
0.0
 10
302.0024639646198
 20
310.8677820064302
 30
0.0
 10
301.0906548489081
 20
310.8677820064302
 30
0.0
 10
300.3514665488542
 20
311.6069703064841
 30
0.0
 10
300.3514665488542
 20
312.5187794221958
 30
0.0
 10
300.3514665488542
 20
313.4306100697543
 30
0.0
 10
301.0906548489081
 20
314.1697768379615
 30
0.0
 10
302.0024639646198
 20
314.1697768379615
 30
0.0
 10
302.9142946121784
 20
314.1697768379615
 30
0.0
 10
303.6534613803855
 20
313.4306100697543
 30
0.0
 10
303.6534613803855
 20
312.5187794221958
 30
0.0
  0
SPLINE
  5
89
330
42
100
AcDbEntity
  8
CAPA_2
 62
     7
100
AcDbSpline
210
0.0
220
0.0
230
1.0
 70
    11
 71
     3
 72
    17
 73
    13
 74
     0
 42
0.0000000001
 43
0.0000000001
 12
1.0
 22
0.0
 32
0.0
 13
1.0
 23
0.0
 33
0.0
 40
0.0
 40
0.0
 40
0.0
 40
0.0
 40
1.0
 40
1.0
 40
1.0
 40
2.0
 40
2.0
 40
2.0
 40
3.0
 40
3.0
 40
3.0
 40
4.0
 40
4.0
 40
4.0
 40
4.0
 10
118.4451388592776
 20
334.3416075824302
 30
0.0
 10
118.4451388592776
 20
333.2427513137162
 30
0.0
 10
117.5543232941791
 20
332.3519572804645
 30
0.0
 10
116.4554670254651
 20
332.3519572804645
 30
0.0
 10
115.3566107567511
 20
332.3519572804645
 30
0.0
 10
114.4658059575761
 20
333.2427513137162
 30
0.0
 10
114.4658059575761
 20
334.3416075824302
 30
0.0
 10
114.4658059575761
 20
335.440485382991
 30
0.0
 10
115.3566107567511
 20
336.3312794162427
 30
0.0
 10
116.4554670254651
 20
336.3312794162427
 30
0.0
 10
117.5543232941791
 20
336.3312794162427
 30
0.0
 10
118.4451388592776
 20
335.440485382991
 30
0.0
 10
118.4451388592776
 20
334.3416075824302
 30
0.0
  0
SPLINE
  5
8A
330
42
100
AcDbEntity
  8
CAPA_2
 62
     7
100
AcDbSpline
210
0.0
220
0.0
230
1.0
 70
    11
 71
     3
 72
    17
 73
    13
 74
     0
 42
0.0000000001
 43
0.0000000001
 12
1.0
 22
0.0
 32
0.0
 13
1.0
 23
0.0
 33
0.0
 40
0.0
 40
0.0
 40
0.0
 40
0.0
 40
1.0
 40
1.0
 40
1.0
 40
2.0
 40
2.0
 40
2.0
 40
3.0
 40
3.0
 40
3.0
 40
4.0
 40
4.0
 40
4.0
 40
4.0
 10
118.4451388592776
 20
265.3806144898614
 30
0.0
 10
118.4451388592776
 20
264.2817582211475
 30
0.0
 10
117.5543232941791
 20
263.390942656049
 30
0.0
 10
116.4554670254651
 20
263.390942656049
 30
0.0
 10
115.3566107567511
 20
263.390942656049
 30
0.0
 10
114.4658059575761
 20
264.2817582211475
 30
0.0
 10
114.4658059575761
 20
265.3806144898614
 30
0.0
 10
114.4658059575761
 20
266.4794922904222
 30
0.0
 10
115.3566107567511
 20
267.370286323674
 30
0.0
 10
116.4554670254651
 20
267.370286323674
 30
0.0
 10
117.5543232941791
 20
267.370286323674
 30
0.0
 10
118.4451388592776
 20
266.4794922904222
 30
0.0
 10
118.4451388592776
 20
265.3806144898614
 30
0.0
  0
SPLINE
  5
8B
330
42
100
AcDbEntity
  8
CAPA_2
 62
     7
100
AcDbSpline
210
0.0
220
0.0
230
1.0
 70
    11
 71
     3
 72
    17
 73
    13
 74
     0
 42
0.0000000001
 43
0.0000000001
 12
1.0
 22
0.0
 32
0.0
 13
1.0
 23
0.0
 33
0.0
 40
0.0
 40
0.0
 40
0.0
 40
0.0
 40
1.0
 40
1.0
 40
1.0
 40
2.0
 40
2.0
 40
2.0
 40
3.0
 40
3.0
 40
3.0
 40
4.0
 40
4.0
 40
4.0
 40
4.0
 10
312.3953050468198
 20
334.3416075824302
 30
0.0
 10
312.3953050468198
 20
333.2427513137162
 30
0.0
 10
311.5045110135681
 20
332.3519572804645
 30
0.0
 10
310.4056332130073
 20
332.3519572804645
 30
0.0
 10
309.3067554124465
 20
332.3519572804645
 30
0.0
 10
308.4159613791949
 20
333.2427513137162
 30
0.0
 10
308.4159613791949
 20
334.3416075824302
 30
0.0
 10
308.4159613791949
 20
335.440485382991
 30
0.0
 10
309.3067554124465
 20
336.3312794162427
 30
0.0
 10
310.4056332130073
 20
336.3312794162427
 30
0.0
 10
311.5045110135681
 20
336.3312794162427
 30
0.0
 10
312.3953050468198
 20
335.440485382991
 30
0.0
 10
312.3953050468198
 20
334.3416075824302
 30
0.0
  0
SPLINE
  5
8C
330
42
100
AcDbEntity
  8
CAPA_2
 62
     7
100
AcDbSpline
210
0.0
220
0.0
230
1.0
 70
    11
 71
     3
 72
    17
 73
    13
 74
     0
 42
0.0000000001
 43
0.0000000001
 12
1.0
 22
0.0
 32
0.0
 13
1.0
 23
0.0
 33
0.0
 40
0.0
 40
0.0
 40
0.0
 40
0.0
 40
1.0
 40
1.0
 40
1.0
 40
2.0
 40
2.0
 40
2.0
 40
3.0
 40
3.0
 40
3.0
 40
4.0
 40
4.0
 40
4.0
 40
4.0
 10
126.5943076770917
 20
312.5187794221958
 30
0.0
 10
126.5943076770917
 20
311.6069703064841
 30
0.0
 10
125.8551193770377
 20
310.8677820064302
 30
0.0
 10
124.9432994954026
 20
310.8677820064302
 30
0.0
 10
124.0314796137675
 20
310.8677820064302
 30
0.0
 10
123.292302079637
 20
311.6069703064841
 30
0.0
 10
123.292302079637
 20
312.5187794221958
 30
0.0
 10
123.292302079637
 20
313.4306100697543
 30
0.0
 10
124.0314796137675
 20
314.1697768379615
 30
0.0
 10
124.9432994954026
 20
314.1697768379615
 30
0.0
 10
125.8551193770377
 20
314.1697768379615
 30
0.0
 10
126.5943076770917
 20
313.4306100697543
 30
0.0
 10
126.5943076770917
 20
312.5187794221958
 30
0.0
  0
SPLINE
  5
8D
330
42
100
AcDbEntity
  8
CAPA_2
 62
     7
100
AcDbSpline
210
0.0
220
0.0
230
1.0
 70
    11
 71
     3
 72
    17
 73
    13
 74
     0
 42
0.0000000001
 43
0.0000000001
 12
1.0
 22
0.0
 32
0.0
 13
1.0
 23
0.0
 33
0.0
 40
0.0
 40
0.0
 40
0.0
 40
0.0
 40
1.0
 40
1.0
 40
1.0
 40
2.0
 40
2.0
 40
2.0
 40
3.0
 40
3.0
 40
3.0
 40
4.0
 40
4.0
 40
4.0
 40
4.0
 10
142.7021315323855
 20
312.5187794221958
 30
0.0
 10
142.7021315323855
 20
311.6069703064841
 30
0.0
 10
141.9629539982549
 20
310.8677820064302
 30
0.0
 10
141.0511341166198
 20
310.8677820064302
 30
0.0
 10
140.1393142349847
 20
310.8677820064302
 30
0.0
 10
139.4001367008542
 20
311.6069703064841
 30
0.0
 10
139.4001367008542
 20
312.5187794221958
 30
0.0
 10
139.4001367008542
 20
313.4306100697543
 30
0.0
 10
140.1393142349847
 20
314.1697768379615
 30
0.0
 10
141.0511341166198
 20
314.1697768379615
 30
0.0
 10
141.9629539982549
 20
314.1697768379615
 30
0.0
 10
142.7021315323855
 20
313.4306100697543
 30
0.0
 10
142.7021315323855
 20
312.5187794221958
 30
0.0
  0
SPLINE
  5
8E
330
42
100
AcDbEntity
  8
CAPA_2
 62
     7
100
AcDbSpline
210
0.0
220
0.0
230
1.0
 70
    11
 71
     3
 72
    17
 73
    13
 74
     0
 42
0.0000000001
 43
0.0000000001
 12
1.0
 22
0.0
 32
0.0
 13
1.0
 23
0.0
 33
0.0
 40
0.0
 40
0.0
 40
0.0
 40
0.0
 40
1.0
 40
1.0
 40
1.0
 40
2.0
 40
2.0
 40
2.0
 40
3.0
 40
3.0
 40
3.0
 40
4.0
 40
4.0
 40
4.0
 40
4.0
 10
158.7888003482151
 20
312.5187794221958
 30
0.0
 10
158.7888003482151
 20
311.6069703064841
 30
0.0
 10
158.0496228140846
 20
310.8677820064302
 30
0.0
 10
157.1378029324495
 20
310.8677820064302
 30
0.0
 10
156.2259830508144
 20
310.8677820064302
 30
0.0
 10
155.4868055166839
 20
311.6069703064841
 30
0.0
 10
155.4868055166839
 20
312.5187794221958
 30
0.0
 10
155.4868055166839
 20
313.4306100697543
 30
0.0
 10
156.2259830508144
 20
314.1697768379615
 30
0.0
 10
157.1378029324495
 20
314.1697768379615
 30
0.0
 10
158.0496228140846
 20
314.1697768379615
 30
0.0
 10
158.7888003482151
 20
313.4306100697543
 30
0.0
 10
158.7888003482151
 20
312.5187794221958
 30
0.0
  0
SPLINE
  5
8F
330
42
100
AcDbEntity
  8
CAPA_2
 62
     7
100
AcDbSpline
210
0.0
220
0.0
230
1.0
 70
    11
 71
     3
 72
    17
 73
    13
 74
     0
 42
0.0000000001
 43
0.0000000001
 12
1.0
 22
0.0
 32
0.0
 13
1.0
 23
0.0
 33
0.0
 40
0.0
 40
0.0
 40
0.0
 40
0.0
 40
1.0
 40
1.0
 40
1.0
 40
2.0
 40
2.0
 40
2.0
 40
3.0
 40
3.0
 40
3.0
 40
4.0
 40
4.0
 40
4.0
 40
4.0
 10
174.8966349694323
 20
312.5187794221958
 30
0.0
 10
174.8966349694323
 20
311.6069703064841
 30
0.0
 10
174.1574574353018
 20
310.8677820064302
 30
0.0
 10
173.2456375536667
 20
310.8677820064302
 30
0.0
 10
172.3338176720316
 20
310.8677820064302
 30
0.0
 10
171.5946401379011
 20
311.6069703064841
 30
0.0
 10
171.5946401379011
 20
312.5187794221958
 30
0.0
 10
171.5946401379011
 20
313.4306100697543
 30
0.0
 10
172.3338176720316
 20
314.1697768379615
 30
0.0
 10
173.2456375536667
 20
314.1697768379615
 30
0.0
 10
174.1574574353018
 20
314.1697768379615
 30
0.0
 10
174.8966349694323
 20
313.4306100697543
 30
0.0
 10
174.8966349694323
 20
312.5187794221958
 30
0.0
  0
SPLINE
  5
90
330
42
100
AcDbEntity
  8
CAPA_2
 62
     7
100
AcDbSpline
210
0.0
220
0.0
230
1.0
 70
    11
 71
     3
 72
    17
 73
    13
 74
     0
 42
0.0000000001
 43
0.0000000001
 12
1.0
 22
0.0
 32
0.0
 13
1.0
 23
0.0
 33
0.0
 40
0.0
 40
0.0
 40
0.0
 40
0.0
 40
1.0
 40
1.0
 40
1.0
 40
2.0
 40
2.0
 40
2.0
 40
3.0
 40
3.0
 40
3.0
 40
4.0
 40
4.0
 40
4.0
 40
4.0
 10
190.9832930193386
 20
312.5187794221958
 30
0.0
 10
190.9832930193386
 20
311.6069703064841
 30
0.0
 10
190.2441262511315
 20
310.8677820064302
 30
0.0
 10
189.332295603573
 20
310.8677820064302
 30
0.0
 10
188.4204864878612
 20
310.8677820064302
 30
0.0
 10
187.6812981878073
 20
311.6069703064841
 30
0.0
 10
187.6812981878073
 20
312.5187794221958
 30
0.0
 10
187.6812981878073
 20
313.4306100697543
 30
0.0
 10
188.4204864878612
 20
314.1697768379615
 30
0.0
 10
189.332295603573
 20
314.1697768379615
 30
0.0
 10
190.2441262511315
 20
314.1697768379615
 30
0.0
 10
190.9832930193386
 20
313.4306100697543
 30
0.0
 10
190.9832930193386
 20
312.5187794221958
 30
0.0
  0
SPLINE
  5
91
330
42
100
AcDbEntity
  8
CAPA_2
 62
     7
100
AcDbSpline
210
0.0
220
0.0
230
1.0
 70
    11
 71
     3
 72
    17
 73
    13
 74
     0
 42
0.0000000001
 43
0.0000000001
 12
1.0
 22
0.0
 32
0.0
 13
1.0
 23
0.0
 33
0.0
 40
0.0
 40
0.0
 40
0.0
 40
0.0
 40
1.0
 40
1.0
 40
1.0
 40
2.0
 40
2.0
 40
2.0
 40
3.0
 40
3.0
 40
3.0
 40
4.0
 40
4.0
 40
4.0
 40
4.0
 10
207.0699726010917
 20
312.5187794221958
 30
0.0
 10
207.0699726010917
 20
311.6069703064841
 30
0.0
 10
206.3307843010378
 20
310.8677820064302
 30
0.0
 10
205.418975185326
 20
310.8677820064302
 30
0.0
 10
204.5071445377675
 20
310.8677820064302
 30
0.0
 10
203.7679777695604
 20
311.6069703064841
 30
0.0
 10
203.7679777695604
 20
312.5187794221958
 30
0.0
 10
203.7679777695604
 20
313.4306100697543
 30
0.0
 10
204.5071445377675
 20
314.1697768379615
 30
0.0
 10
205.418975185326
 20
314.1697768379615
 30
0.0
 10
206.3307843010378
 20
314.1697768379615
 30
0.0
 10
207.0699726010917
 20
313.4306100697543
 30
0.0
 10
207.0699726010917
 20
312.5187794221958
 30
0.0
  0
SPLINE
  5
92
330
42
100
AcDbEntity
  8
CAPA_2
 62
     7
100
AcDbSpline
210
0.0
220
0.0
230
1.0
 70
    11
 71
     3
 72
    17
 73
    13
 74
     0
 42
0.0000000001
 43
0.0000000001
 12
1.0
 22
0.0
 32
0.0
 13
1.0
 23
0.0
 33
0.0
 40
0.0
 40
0.0
 40
0.0
 40
0.0
 40
1.0
 40
1.0
 40
1.0
 40
2.0
 40
2.0
 40
2.0
 40
3.0
 40
3.0
 40
3.0
 40
4.0
 40
4.0
 40
4.0
 40
4.0
 10
223.1777964563855
 20
312.5187794221958
 30
0.0
 10
223.1777964563855
 20
311.6069703064841
 30
0.0
 10
222.4386296881783
 20
310.8677820064302
 30
0.0
 10
221.5267990406198
 20
310.8677820064302
 30
0.0
 10
220.6149899249081
 20
310.8677820064302
 30
0.0
 10
219.8758016248542
 20
311.6069703064841
 30
0.0
 10
219.8758016248542
 20
312.5187794221958
 30
0.0
 10
219.8758016248542
 20
313.4306100697543
 30
0.0
 10
220.6149899249081
 20
314.1697768379615
 30
0.0
 10
221.5267990406198
 20
314.1697768379615
 30
0.0
 10
222.4386296881783
 20
314.1697768379615
 30
0.0
 10
223.1777964563855
 20
313.4306100697543
 30
0.0
 10
223.1777964563855
 20
312.5187794221958
 30
0.0
  0
SPLINE
  5
93
330
42
100
AcDbEntity
  8
CAPA_2
 62
     7
100
AcDbSpline
210
0.0
220
0.0
230
1.0
 70
    11
 71
     3
 72
    17
 73
    13
 74
     0
 42
0.0000000001
 43
0.0000000001
 12
1.0
 22
0.0
 32
0.0
 13
1.0
 23
0.0
 33
0.0
 40
0.0
 40
0.0
 40
0.0
 40
0.0
 40
1.0
 40
1.0
 40
1.0
 40
2.0
 40
2.0
 40
2.0
 40
3.0
 40
3.0
 40
3.0
 40
4.0
 40
4.0
 40
4.0
 40
4.0
 10
239.2644760381385
 20
312.5187794221958
 30
0.0
 10
239.2644760381385
 20
311.6069703064841
 30
0.0
 10
238.5252877380846
 20
310.8677820064302
 30
0.0
 10
237.6134570905261
 20
310.8677820064302
 30
0.0
 10
236.7016479748144
 20
310.8677820064302
 30
0.0
 10
235.9624596747605
 20
311.6069703064841
 30
0.0
 10
235.9624596747605
 20
312.5187794221958
 30
0.0
 10
235.9624596747605
 20
313.4306100697543
 30
0.0
 10
236.7016479748144
 20
314.1697768379615
 30
0.0
 10
237.6134570905261
 20
314.1697768379615
 30
0.0
 10
238.5252877380846
 20
314.1697768379615
 30
0.0
 10
239.2644760381385
 20
313.4306100697543
 30
0.0
 10
239.2644760381385
 20
312.5187794221958
 30
0.0
  0
SPLINE
  5
94
330
42
100
AcDbEntity
  8
CAPA_2
 62
     7
100
AcDbSpline
210
0.0
220
0.0
230
1.0
 70
    11
 71
     3
 72
    17
 73
    13
 74
     0
 42
0.0000000001
 43
0.0000000001
 12
1.0
 22
0.0
 32
0.0
 13
1.0
 23
0.0
 33
0.0
 40
0.0
 40
0.0
 40
0.0
 40
0.0
 40
1.0
 40
1.0
 40
1.0
 40
2.0
 40
2.0
 40
2.0
 40
3.0
 40
3.0
 40
3.0
 40
4.0
 40
4.0
 40
4.0
 40
4.0
 10
255.3722998934323
 20
312.5187794221958
 30
0.0
 10
255.3722998934323
 20
311.6069703064841
 30
0.0
 10
254.6331115933784
 20
310.8677820064302
 30
0.0
 10
253.7213024776667
 20
310.8677820064302
 30
0.0
 10
252.8094718301082
 20
310.8677820064302
 30
0.0
 10
252.0703050619011
 20
311.6069703064841
 30
0.0
 10
252.0703050619011
 20
312.5187794221958
 30
0.0
 10
252.0703050619011
 20
313.4306100697543
 30
0.0
 10
252.8094718301082
 20
314.1697768379615
 30
0.0
 10
253.7213024776667
 20
314.1697768379615
 30
0.0
 10
254.6331115933784
 20
314.1697768379615
 30
0.0
 10
255.3722998934323
 20
313.4306100697543
 30
0.0
 10
255.3722998934323
 20
312.5187794221958
 30
0.0
  0
SPLINE
  5
95
330
42
100
AcDbEntity
  8
CAPA_2
100
AcDbSpline
210
0.0
220
0.0
230
1.0
 70
    11
 71
     3
 72
    17
 73
    13
 74
     0
 42
0.0000000001
 43
0.0000000001
 12
1.0
 22
0.0
 32
0.0
 13
1.0
 23
0.0
 33
0.0
 40
0.0
 40
0.0
 40
0.0
 40
0.0
 40
1.0
 40
1.0
 40
1.0
 40
2.0
 40
2.0
 40
2.0
 40
3.0
 40
3.0
 40
3.0
 40
4.0
 40
4.0
 40
4.0
 40
4.0
 10
271.4589579433386
 20
312.5187794221958
 30
0.0
 10
271.4589579433386
 20
311.6069703064841
 30
0.0
 10
270.7197911751315
 20
310.8677820064302
 30
0.0
 10
269.807960527573
 20
310.8677820064302
 30
0.0
 10
268.8961514118612
 20
310.8677820064302
 30
0.0
 10
268.1569631118073
 20
311.6069703064841
 30
0.0
 10
268.1569631118073
 20
312.5187794221958
 30
0.0
 10
268.1569631118073
 20
313.4306100697543
 30
0.0
 10
268.8961514118612
 20
314.1697768379615
 30
0.0
 10
269.807960527573
 20
314.1697768379615
 30
0.0
 10
270.7197911751315
 20
314.1697768379615
 30
0.0
 10
271.4589579433386
 20
313.4306100697543
 30
0.0
 10
271.4589579433386
 20
312.5187794221958
 30
0.0
  0
SPLINE
  5
96
330
42
100
AcDbEntity
  8
CAPA_2
 62
     7
100
AcDbSpline
210
0.0
220
0.0
230
1.0
 70
    11
 71
     3
 72
    17
 73
    13
 74
     0
 42
0.0000000001
 43
0.0000000001
 12
1.0
 22
0.0
 32
0.0
 13
1.0
 23
0.0
 33
0.0
 40
0.0
 40
0.0
 40
0.0
 40
0.0
 40
1.0
 40
1.0
 40
1.0
 40
2.0
 40
2.0
 40
2.0
 40
3.0
 40
3.0
 40
3.0
 40
4.0
 40
4.0
 40
4.0
 40
4.0
 10
287.5668033304792
 20
312.5187794221958
 30
0.0
 10
287.5668033304792
 20
311.6069703064841
 30
0.0
 10
286.8276150304252
 20
310.8677820064302
 30
0.0
 10
285.9158059147135
 20
310.8677820064302
 30
0.0
 10
285.0039752671551
 20
310.8677820064302
 30
0.0
 10
284.2648084989479
 20
311.6069703064841
 30
0.0
 10
284.2648084989479
 20
312.5187794221958
 30
0.0
 10
284.2648084989479
 20
313.4306100697543
 30
0.0
 10
285.0039752671551
 20
314.1697768379615
 30
0.0
 10
285.9158059147135
 20
314.1697768379615
 30
0.0
 10
286.8276150304252
 20
314.1697768379615
 30
0.0
 10
287.5668033304792
 20
313.4306100697543
 30
0.0
 10
287.5668033304792
 20
312.5187794221958
 30
0.0
  0
SPLINE
  5
97
330
42
100
AcDbEntity
  8
CAPA_2
 62
     7
100
AcDbSpline
210
0.0
220
0.0
230
1.0
 70
    11
 71
     3
 72
    17
 73
    13
 74
     0
 42
0.0000000001
 43
0.0000000001
 12
1.0
 22
0.0
 32
0.0
 13
1.0
 23
0.0
 33
0.0
 40
0.0
 40
0.0
 40
0.0
 40
0.0
 40
1.0
 40
1.0
 40
1.0
 40
2.0
 40
2.0
 40
2.0
 40
3.0
 40
3.0
 40
3.0
 40
4.0
 40
4.0
 40
4.0
 40
4.0
 10
174.7272977604089
 20
268.3651222405801
 30
0.0
 10
174.7272977604089
 20
267.4532915930217
 30
0.0
 10
173.9881202262784
 20
266.7141248248145
 30
0.0
 10
173.0763003446433
 20
266.7141248248145
 30
0.0
 10
172.1644804630081
 20
266.7141248248145
 30
0.0
 10
171.4253029288776
 20
267.4532915930217
 30
0.0
 10
171.4253029288776
 20
268.3651222405801
 30
0.0
 10
171.4253029288776
 20
269.2769313562919
 30
0.0
 10
172.1644804630081
 20
270.0161196563458
 30
0.0
 10
173.0763003446433
 20
270.0161196563458
 30
0.0
 10
173.9881202262784
 20
270.0161196563458
 30
0.0
 10
174.7272977604089
 20
269.2769313562919
 30
0.0
 10
174.7272977604089
 20
268.3651222405801
 30
0.0
  0
SPLINE
  5
98
330
42
100
AcDbEntity
  8
CAPA_2
 62
     7
100
AcDbSpline
210
0.0
220
0.0
230
1.0
 70
    11
 71
     3
 72
    29
 73
    25
 74
     0
 42
0.0000000001
 43
0.0000000001
 12
1.0
 22
0.0
 32
0.0
 13
1.0
 23
0.0
 33
0.0
 40
0.0
 40
0.0
 40
0.0
 40
0.0
 40
1.0
 40
1.0
 40
1.0
 40
2.0
 40
2.0
 40
2.0
 40
3.0
 40
3.0
 40
3.0
 40
4.0
 40
4.0
 40
4.0
 40
5.0
 40
5.0
 40
5.0
 40
6.0
 40
6.0
 40
6.0
 40
7.0
 40
7.0
 40
7.0
 40
8.0
 40
8.0
 40
8.0
 40
8.0
 10
222.018080324463
 20
268.9083922667573
 30
0.0
 10
222.018080324463
 20
268.9083922667573
 30
0.0
 10
197.4135315430641
 20
268.9083922667573
 30
0.0
 10
197.4135315430641
 20
268.9083922667573
 30
0.0
 10
196.5927927323561
 20
268.9083922667573
 30
0.0
 10
195.9212791599585
 20
269.5799058391548
 30
0.0
 10
195.9212791599585
 20
270.4006446498628
 30
0.0
 10
195.9212791599585
 20
270.4006446498628
 30
0.0
 10
195.9212791599585
 20
270.4006476343704
 30
0.0
 10
195.9212791599585
 20
270.4006476343704
 30
0.0
 10
195.9212791599585
 20
271.2213864450785
 30
0.0
 10
196.5927927323561
 20
271.892900017476
 30
0.0
 10
197.4135315430641
 20
271.892900017476
 30
0.0
 10
197.4135315430641
 20
271.892900017476
 30
0.0
 10
222.018080324463
 20
271.892900017476
 30
0.0
 10
222.018080324463
 20
271.892900017476
 30
0.0
 10
222.838819135171
 20
271.892900017476
 30
0.0
 10
223.5103327075686
 20
271.2213864450785
 30
0.0
 10
223.5103327075686
 20
270.4006476343704
 30
0.0
 10
223.5103327075686
 20
270.4006476343704
 30
0.0
 10
223.5103327075686
 20
270.4006446498628
 30
0.0
 10
223.5103327075686
 20
270.4006446498628
 30
0.0
 10
223.5103327075686
 20
269.5799058391548
 30
0.0
 10
222.838819135171
 20
268.9083922667573
 30
0.0
 10
222.018080324463
 20
268.9083922667573
 30
0.0
  0
SPLINE
  5
99
330
42
100
AcDbEntity
  8
CAPA_2
 62
     7
100
AcDbSpline
210
0.0
220
0.0
230
1.0
 70
    11
 71
     3
 72
    29
 73
    25
 74
     0
 42
0.0000000001
 43
0.0000000001
 12
1.0
 22
0.0
 32
0.0
 13
1.0
 23
0.0
 33
0.0
 40
0.0
 40
0.0
 40
0.0
 40
0.0
 40
1.0
 40
1.0
 40
1.0
 40
2.0
 40
2.0
 40
2.0
 40
3.0
 40
3.0
 40
3.0
 40
4.0
 40
4.0
 40
4.0
 40
5.0
 40
5.0
 40
5.0
 40
6.0
 40
6.0
 40
6.0
 40
7.0
 40
7.0
 40
7.0
 40
8.0
 40
8.0
 40
8.0
 40
8.0
 10
221.7641767872001
 20
329.3215866960984
 30
0.0
 10
221.7641767872001
 20
329.3215866960984
 30
0.0
 10
197.1596280058012
 20
329.3215866960984
 30
0.0
 10
197.1596280058012
 20
329.3215866960984
 30
0.0
 10
196.3388891950931
 20
329.3215866960984
 30
0.0
 10
195.6673756226956
 20
329.993100268496
 30
0.0
 10
195.6673756226956
 20
330.813839079204
 30
0.0
 10
195.6673756226956
 20
330.813839079204
 30
0.0
 10
195.6673756226956
 20
330.8138420637116
 30
0.0
 10
195.6673756226956
 20
330.8138420637116
 30
0.0
 10
195.6673756226956
 20
331.6345808744196
 30
0.0
 10
196.3388891950931
 20
332.3060944468172
 30
0.0
 10
197.1596280058012
 20
332.3060944468172
 30
0.0
 10
197.1596280058012
 20
332.3060944468172
 30
0.0
 10
221.7641767872001
 20
332.3060944468172
 30
0.0
 10
221.7641767872001
 20
332.3060944468172
 30
0.0
 10
222.5849155979081
 20
332.3060944468172
 30
0.0
 10
223.2564291703057
 20
331.6345808744196
 30
0.0
 10
223.2564291703057
 20
330.8138420637116
 30
0.0
 10
223.2564291703057
 20
330.8138420637116
 30
0.0
 10
223.2564291703057
 20
330.813839079204
 30
0.0
 10
223.2564291703057
 20
330.813839079204
 30
0.0
 10
223.2564291703057
 20
329.993100268496
 30
0.0
 10
222.5849155979081
 20
329.3215866960984
 30
0.0
 10
221.7641767872001
 20
329.3215866960984
 30
0.0
  0
INSERT
  5
9B
330
42
100
AcDbEntity
  8
CAPA_2
100
AcDbBlockReference
  2
BLOCK_3
 10
0.0
 20
0.0
 30
0.0
  0
INSERT
  5
A1
330
42
100
AcDbEntity
  8
CAPA_2
100
AcDbBlockReference
  2
BLOCK_4
 10
0.0
 20
0.0
 30
0.0
  0
ENDBLK
  5
45
330
42
100
AcDbEntity
  8
0
100
AcDbBlockEnd
  0
BLOCK
  5
9C
330
9A
100
AcDbEntity
  8
0
100
AcDbBlockBegin
  2
BLOCK_3
 70
     0
 10
0.0
 20
0.0
 30
0.0
  3
BLOCK_3
  1

  0
SPLINE
  5
9E
330
9A
100
AcDbEntity
  8
CAPA_2
 62
     7
100
AcDbSpline
210
0.0
220
0.0
230
1.0
 70
    11
 71
     3
 72
    29
 73
    25
 74
     0
 42
0.0000000001
 43
0.0000000001
 12
1.0
 22
0.0
 32
0.0
 13
1.0
 23
0.0
 33
0.0
 40
0.0
 40
0.0
 40
0.0
 40
0.0
 40
1.0
 40
1.0
 40
1.0
 40
2.0
 40
2.0
 40
2.0
 40
3.0
 40
3.0
 40
3.0
 40
4.0
 40
4.0
 40
4.0
 40
5.0
 40
5.0
 40
5.0
 40
6.0
 40
6.0
 40
6.0
 40
7.0
 40
7.0
 40
7.0
 40
8.0
 40
8.0
 40
8.0
 40
8.0
 10
300.1605637965407
 20
268.9542551004047
 30
0.0
 10
300.1605637965407
 20
268.9542551004047
 30
0.0
 10
275.5560150151418
 20
268.9542551004047
 30
0.0
 10
275.5560150151418
 20
268.9542551004047
 30
0.0
 10
274.7352762044338
 20
268.9542551004047
 30
0.0
 10
274.0637626320363
 20
269.6257686728022
 30
0.0
 10
274.0637626320363
 20
270.4465074835102
 30
0.0
 10
274.0637626320363
 20
270.4465074835102
 30
0.0
 10
274.0637626320363
 20
270.4465104680178
 30
0.0
 10
274.0637626320363
 20
270.4465104680178
 30
0.0
 10
274.0637626320363
 20
271.2672492787258
 30
0.0
 10
274.7352762044338
 20
271.9387628511234
 30
0.0
 10
275.5560150151418
 20
271.9387628511234
 30
0.0
 10
275.5560150151418
 20
271.9387628511234
 30
0.0
 10
300.1605637965407
 20
271.9387628511234
 30
0.0
 10
300.1605637965407
 20
271.9387628511234
 30
0.0
 10
300.9813026072488
 20
271.9387628511234
 30
0.0
 10
301.6528161796463
 20
271.2672492787258
 30
0.0
 10
301.6528161796463
 20
270.4465104680178
 30
0.0
 10
301.6528161796463
 20
270.4465104680178
 30
0.0
 10
301.6528161796463
 20
270.4465074835102
 30
0.0
 10
301.6528161796463
 20
270.4465074835102
 30
0.0
 10
301.6528161796463
 20
269.6257686728022
 30
0.0
 10
300.9813026072488
 20
268.9542551004047
 30
0.0
 10
300.1605637965407
 20
268.9542551004047
 30
0.0
  0
SPLINE
  5
9F
330
9A
100
AcDbEntity
  8
CAPA_2
 62
     7
100
AcDbSpline
210
0.0
220
0.0
230
1.0
 70
    11
 71
     3
 72
    29
 73
    25
 74
     0
 42
0.0000000001
 43
0.0000000001
 12
1.0
 22
0.0
 32
0.0
 13
1.0
 23
0.0
 33
0.0
 40
0.0
 40
0.0
 40
0.0
 40
0.0
 40
1.0
 40
1.0
 40
1.0
 40
2.0
 40
2.0
 40
2.0
 40
3.0
 40
3.0
 40
3.0
 40
4.0
 40
4.0
 40
4.0
 40
5.0
 40
5.0
 40
5.0
 40
6.0
 40
6.0
 40
6.0
 40
7.0
 40
7.0
 40
7.0
 40
8.0
 40
8.0
 40
8.0
 40
8.0
 10
299.9066602592778
 20
329.3674495297458
 30
0.0
 10
299.9066602592778
 20
329.3674495297458
 30
0.0
 10
275.3021114778789
 20
329.3674495297458
 30
0.0
 10
275.3021114778789
 20
329.3674495297458
 30
0.0
 10
274.4813726671709
 20
329.3674495297458
 30
0.0
 10
273.8098590947733
 20
330.0389631021434
 30
0.0
 10
273.8098590947733
 20
330.8597019128514
 30
0.0
 10
273.8098590947733
 20
330.8597019128514
 30
0.0
 10
273.8098590947733
 20
330.859704897359
 30
0.0
 10
273.8098590947733
 20
330.859704897359
 30
0.0
 10
273.8098590947733
 20
331.680443708067
 30
0.0
 10
274.4813726671709
 20
332.3519572804645
 30
0.0
 10
275.3021114778789
 20
332.3519572804645
 30
0.0
 10
275.3021114778789
 20
332.3519572804645
 30
0.0
 10
299.9066602592778
 20
332.3519572804645
 30
0.0
 10
299.9066602592778
 20
332.3519572804645
 30
0.0
 10
300.7273990699858
 20
332.3519572804645
 30
0.0
 10
301.3989126423834
 20
331.680443708067
 30
0.0
 10
301.3989126423834
 20
330.859704897359
 30
0.0
 10
301.3989126423834
 20
330.859704897359
 30
0.0
 10
301.3989126423834
 20
330.8597019128514
 30
0.0
 10
301.3989126423834
 20
330.8597019128514
 30
0.0
 10
301.3989126423834
 20
330.0389631021434
 30
0.0
 10
300.7273990699858
 20
329.3674495297458
 30
0.0
 10
299.9066602592778
 20
329.3674495297458
 30
0.0
  0
ENDBLK
  5
9D
330
9A
100
AcDbEntity
  8
0
100
AcDbBlockEnd
  0
BLOCK
  5
A2
330
A0
100
AcDbEntity
  8
0
100
AcDbBlockBegin
  2
BLOCK_4
 70
     0
 10
0.0
 20
0.0
 30
0.0
  3
BLOCK_4
  1

  0
SPLINE
  5
A4
330
A0
100
AcDbEntity
  8
CAPA_2
 62
     7
100
AcDbSpline
210
0.0
220
0.0
230
1.0
 70
    11
 71
     3
 72
    29
 73
    25
 74
     0
 42
0.0000000001
 43
0.0000000001
 12
1.0
 22
0.0
 32
0.0
 13
1.0
 23
0.0
 33
0.0
 40
0.0
 40
0.0
 40
0.0
 40
0.0
 40
1.0
 40
1.0
 40
1.0
 40
2.0
 40
2.0
 40
2.0
 40
3.0
 40
3.0
 40
3.0
 40
4.0
 40
4.0
 40
4.0
 40
5.0
 40
5.0
 40
5.0
 40
6.0
 40
6.0
 40
6.0
 40
7.0
 40
7.0
 40
7.0
 40
8.0
 40
8.0
 40
8.0
 40
8.0
 10
149.2189063517774
 20
268.9542551004047
 30
0.0
 10
149.2189063517774
 20
268.9542551004047
 30
0.0
 10
124.6143575703785
 20
268.9542551004047
 30
0.0
 10
124.6143575703785
 20
268.9542551004047
 30
0.0
 10
123.7936187596704
 20
268.9542551004047
 30
0.0
 10
123.1221051872729
 20
269.6257686728022
 30
0.0
 10
123.1221051872729
 20
270.4465074835102
 30
0.0
 10
123.1221051872729
 20
270.4465074835102
 30
0.0
 10
123.1221051872729
 20
270.4465104680178
 30
0.0
 10
123.1221051872729
 20
270.4465104680178
 30
0.0
 10
123.1221051872729
 20
271.2672492787258
 30
0.0
 10
123.7936187596704
 20
271.9387628511234
 30
0.0
 10
124.6143575703785
 20
271.9387628511234
 30
0.0
 10
124.6143575703785
 20
271.9387628511234
 30
0.0
 10
149.2189063517774
 20
271.9387628511234
 30
0.0
 10
149.2189063517774
 20
271.9387628511234
 30
0.0
 10
150.0396451624854
 20
271.9387628511234
 30
0.0
 10
150.7111587348829
 20
271.2672492787258
 30
0.0
 10
150.7111587348829
 20
270.4465104680178
 30
0.0
 10
150.7111587348829
 20
270.4465104680178
 30
0.0
 10
150.7111587348829
 20
270.4465074835102
 30
0.0
 10
150.7111587348829
 20
270.4465074835102
 30
0.0
 10
150.7111587348829
 20
269.6257686728022
 30
0.0
 10
150.0396451624854
 20
268.9542551004047
 30
0.0
 10
149.2189063517774
 20
268.9542551004047
 30
0.0
  0
SPLINE
  5
A5
330
A0
100
AcDbEntity
  8
CAPA_2
 62
     7
100
AcDbSpline
210
0.0
220
0.0
230
1.0
 70
    11
 71
     3
 72
    29
 73
    25
 74
     0
 42
0.0000000001
 43
0.0000000001
 12
1.0
 22
0.0
 32
0.0
 13
1.0
 23
0.0
 33
0.0
 40
0.0
 40
0.0
 40
0.0
 40
0.0
 40
1.0
 40
1.0
 40
1.0
 40
2.0
 40
2.0
 40
2.0
 40
3.0
 40
3.0
 40
3.0
 40
4.0
 40
4.0
 40
4.0
 40
5.0
 40
5.0
 40
5.0
 40
6.0
 40
6.0
 40
6.0
 40
7.0
 40
7.0
 40
7.0
 40
8.0
 40
8.0
 40
8.0
 40
8.0
 10
148.9650028145145
 20
329.3674495297458
 30
0.0
 10
148.9650028145145
 20
329.3674495297458
 30
0.0
 10
124.3604540331156
 20
329.3674495297458
 30
0.0
 10
124.3604540331156
 20
329.3674495297458
 30
0.0
 10
123.5397152224075
 20
329.3674495297458
 30
0.0
 10
122.86820165001
 20
330.0389631021434
 30
0.0
 10
122.86820165001
 20
330.8597019128514
 30
0.0
 10
122.86820165001
 20
330.8597019128514
 30
0.0
 10
122.86820165001
 20
330.859704897359
 30
0.0
 10
122.86820165001
 20
330.859704897359
 30
0.0
 10
122.86820165001
 20
331.680443708067
 30
0.0
 10
123.5397152224075
 20
332.3519572804645
 30
0.0
 10
124.3604540331156
 20
332.3519572804645
 30
0.0
 10
124.3604540331156
 20
332.3519572804645
 30
0.0
 10
148.9650028145145
 20
332.3519572804645
 30
0.0
 10
148.9650028145145
 20
332.3519572804645
 30
0.0
 10
149.7857416252225
 20
332.3519572804645
 30
0.0
 10
150.45725519762
 20
331.680443708067
 30
0.0
 10
150.45725519762
 20
330.859704897359
 30
0.0
 10
150.45725519762
 20
330.859704897359
 30
0.0
 10
150.45725519762
 20
330.8597019128514
 30
0.0
 10
150.45725519762
 20
330.8597019128514
 30
0.0
 10
150.45725519762
 20
330.0389631021434
 30
0.0
 10
149.7857416252225
 20
329.3674495297458
 30
0.0
 10
148.9650028145145
 20
329.3674495297458
 30
0.0
  0
ENDBLK
  5
A3
330
A0
100
AcDbEntity
  8
0
100
AcDbBlockEnd
  0
ENDSEC
  0
SECTION
  2
ENTITIES
  0
INSERT
  5
43
330
1F
100
AcDbEntity
  8
CAPA_2
100
AcDbBlockReference
  2
BLOCK_2
 10
0.0
 20
0.0
 30
0.0
  0
ENDSEC
  0
SECTION
  2
OBJECTS
  0
DICTIONARY
  5
C
330
0
100
AcDbDictionary
  3
ACAD_GROUP
350
D
  3
ACAD_LAYOUT
350
1A
  3
ACAD_MATERIAL
350
3B
  3
ACAD_MLEADERSTYLE
350
C8
  3
ACAD_MLINESTYLE
350
17
  3
ACAD_PLOTSETTINGS
350
19
  3
ACAD_VISUALSTYLE
350
2A
  3
ACDBHEADERROUNDTRIPXREC
350
A6
  3
ACDBVARIABLEDICTIONARY
350
C6
  0
DICTIONARY
  5
D
102
{ACAD_REACTORS
330
C
102
}
330
C
100
AcDbDictionary
  0
DICTIONARY
  5
1A
102
{ACAD_REACTORS
330
C
102
}
330
C
100
AcDbDictionary
  0
DICTIONARY
  5
3B
102
{ACAD_REACTORS
330
C
102
}
330
C
100
AcDbDictionary
  3
BYBLOCK
350
3D
  3
BYLAYER
350
3C
  3
GLOBAL
350
3E
  0
DICTIONARY
  5
C8
102
{ACAD_REACTORS
330
C
102
}
330
C
100
AcDbDictionary
  0
DICTIONARY
  5
17
102
{ACAD_REACTORS
330
C
102
}
330
C
100
AcDbDictionary
  3
STANDARD
350
18
  0
DICTIONARY
  5
19
102
{ACAD_REACTORS
330
C
102
}
330
C
100
AcDbDictionary
  0
DICTIONARY
  5
2A
102
{ACAD_REACTORS
330
C
102
}
330
C
100
AcDbDictionary
  3
2DWIREFRAME
350
2F
  3
3DWIREFRAME
350
30
  3
3D_HIDDEN
350
31
  3
BASIC
350
32
  3
BRIGHTEN
350
36
  3
COLORCHANGE
350
3A
  3
CONCEPTUAL
350
34
  3
DIM
350
35
  3
FACEPATTERN
350
39
  3
FLAT
350
2B
  3
FLATWITHEDGES
350
2C
  3
GOURAUD
350
2D
  3
GOURAUDWITHEDGES
350
2E
  3
LINEPATTERN
350
38
  3
REALISTIC
350
33
  3
THICKEN
350
37
  0
DICTIONARY
  5
A6
102
{ACAD_REACTORS
330
C
102
}
330
C
100
AcDbDictionary
  3
CEPSNTYPE
350
AF
  3
DIMSTYLEDATA
350
C5
  3
FINGERPRINTGUID
350
B0
  3
HYPERLINKBASE
350
A9
  3
INSUNITS
350
AE
  3
LAYOUTDICT
350
AB
  3
LWETCUNION
350
AD
  3
PLOTSETDICT
350
AC
  3
PSVPSCALE
350
B2
  3
PUCSBASE
350
B5
  3
PUCSORGBACK
350
BB
  3
PUCSORGBOTTOM
350
B7
  3
PUCSORGFRONT
350
BA
  3
PUCSORGLEFT
350
B8
  3
PUCSORGRIGHT
350
B9
  3
PUCSORGTOP
350
B6
  3
PUCSORTHOREF
350
B3
  3
PUCSORTHOVIEW
350
B4
  3
STYLESHEET
350
AA
  3
TSTACKALIGN
350
A7
  3
TSTACKSIZE
350
A8
  3
UCSBASE
350
BE
  3
UCSORGBACK
350
C4
  3
UCSORGBOTTOM
350
C0
  3
UCSORGFRONT
350
C3
  3
UCSORGLEFT
350
C1
  3
UCSORGRIGHT
350
C2
  3
UCSORGTOP
350
BF
  3
UCSORTHOREF
350
BC
  3
UCSORTHOVIEW
350
BD
  3
VERSIONGUID
350
B1
  0
DICTIONARY
  5
C6
102
{ACAD_REACTORS
330
C
102
}
330
C
100
AcDbDictionary
  3
DIMASSOC
350
C9
  3
HIDETEXT
350
CA
  0
MATERIAL
  5
3D
102
{ACAD_REACTORS
330
3B
102
}
102
{ACAD_XDICTIONARY
360
CD
102
}
330
3B
100
AcDbMaterial
  1
ByBlock
  0
MATERIAL
  5
3C
102
{ACAD_REACTORS
330
3B
102
}
102
{ACAD_XDICTIONARY
360
CB
102
}
330
3B
100
AcDbMaterial
  1
ByLayer
  0
MATERIAL
  5
3E
102
{ACAD_REACTORS
330
3B
102
}
102
{ACAD_XDICTIONARY
360
CF
102
}
330
3B
100
AcDbMaterial
  1
Global
  0
MLINESTYLE
  5
18
102
{ACAD_REACTORS
330
17
102
}
330
17
100
AcDbMlineStyle
  2
Standard
 70
     0
  3

 62
   256
 51
90.0
 52
90.0
 71
     2
 49
0.5
 62
   256
  6
BYLAYER
 49
-0.5
 62
   256
  6
BYLAYER
  0
ACAD_PROXY_OBJECT
  5
2F
102
{ACAD_REACTORS
330
2A
102
}
330
2A
100
AcDbProxyObject
 90
      499
 91
      501
 93
      436
310
42CC9915DA5C99599C985B595049028333333333333E3BF0000000000000FB0107901411070040501600405405064090741402480A0340
1001
ACAD
1000
AcDbSavedByObjectVersion
1070
     0
  0
ACAD_PROXY_OBJECT
  5
30
102
{ACAD_REACTORS
330
2A
102
}
330
2A
100
AcDbProxyObject
 90
      499
 91
      501
 93
      436
310
42CCD915DA5C99599C985B595059028333333333333E3BF0000000000000FB0107901411070040501600405405064090741402480A0340
1001
ACAD
1000
AcDbSavedByObjectVersion
1070
     0
  0
ACAD_PROXY_OBJECT
  5
31
102
{ACAD_REACTORS
330
2A
102
}
330
2A
100
AcDbProxyObject
 90
      499
 91
      501
 93
      500
310
424CD108121A5919195B90640502408333333333333E3BF0000000000000FB01079024090700405020000000000001110200405405064090740C02480A0340
1001
ACAD
1000
AcDbSavedByObjectVersion
1070
     0
  0
ACAD_PROXY_OBJECT
  5
32
102
{ACAD_REACTORS
330
2A
102
}
330
2A
100
AcDbProxyObject
 90
      499
 91
      501
 93
      388
310
4150985CDA58D07406404333333333333E3BF0000000000000FB0107A41107004050150841D405064090741402480A0350
1001
ACAD
1000
AcDbSavedByObjectVersion
1070
     0
  0
ACAD_PROXY_OBJECT
  5
36
102
{ACAD_REACTORS
330
2A
102
}
330
2A
100
AcDbProxyObject
 90
      499
 91
      501
 93
      428
310
42109C9A59DA1D195B90C409028333333333333E3BF0000000000000FB010790141107004050150841D405064090741402480A029950
1001
ACAD
1000
AcDbSavedByObjectVersion
1070
     0
  0
ACAD_PROXY_OBJECT
  5
3A
102
{ACAD_REACTORS
330
2A
102
}
330
2A
100
AcDbProxyObject
 90
      499
 91
      501
 93
      452
310
42D0DBDB1BDC90DA185B99D95104090240C333333333333E3BF0000000000000FB0108901411070040501508421405064090741402480A0350
1001
ACAD
1000
AcDbSavedByObjectVersion
1070
     0
  0
ACAD_PROXY_OBJECT
  5
34
102
{ACAD_REACTORS
330
2A
102
}
330
2A
100
AcDbProxyObject
 90
      499
 91
      501
 93
      500
310
4290DBDB98D95C1D1D585B10940D028333333333333E3BF0000000000000FB0107902409070040501000000000000111010841D405064090740C02480A0340
1001
ACAD
1000
AcDbSavedByObjectVersion
1070
     0
  0
ACAD_PROXY_OBJECT
  5
35
102
{ACAD_REACTORS
330
2A
102
}
330
2A
100
AcDbProxyObject
 90
      499
 91
      501
 93
      412
310
40D11A5B50B409028333333333333E3BF0000000000000FB010790141107004050150841D405064090741402480A02677FFFFFD0
1001
ACAD
1000
AcDbSavedByObjectVersion
1070
     0
  0
ACAD_PROXY_OBJECT
  5
39
102
{ACAD_REACTORS
330
2A
102
}
330
2A
100
AcDbProxyObject
 90
      499
 91
      501
 93
      444
310
42D19858D95C185D1D195C9B90F409028333333333333E3BF0000000000000FB010790141107004050150841D405064090741402480A0350
1001
ACAD
1000
AcDbSavedByObjectVersion
1070
     0
  0
ACAD_PROXY_OBJECT
  5
2B
102
{ACAD_REACTORS
330
2A
102
}
330
2A
100
AcDbProxyObject
 90
      499
 91
      501
 93
      388
310
41119B185D240901404333333333333E3BF0000000000000F9010740A41107004050150841D405064090741402480A1B50
1001
ACAD
1000
AcDbSavedByObjectVersion
1070
     0
  0
ACAD_PROXY_OBJECT
  5
2C
102
{ACAD_REACTORS
330
2A
102
}
330
2A
100
AcDbProxyObject
 90
      499
 91
      501
 93
      476
310
43519B185D15DA5D1A115919D95CD0140901404333333333333E3BF0000000000000F9010740901411070040501600405405064090741402480A1B50
1001
ACAD
1000
AcDbSavedByObjectVersion
1070
     0
  0
ACAD_PROXY_OBJECT
  5
2D
102
{ACAD_REACTORS
330
2A
102
}
330
2A
100
AcDbProxyObject
 90
      499
 91
      501
 93
      412
310
41D1DBDD5C985D5910240902404333333333333E3BF0000000000000F9010740A411070040501641D405064090741402480A1B50
1001
ACAD
1000
AcDbSavedByObjectVersion
1070
     0
  0
ACAD_PROXY_OBJECT
  5
2E
102
{ACAD_REACTORS
330
2A
102
}
330
2A
100
AcDbProxyObject
 90
      499
 91
      501
 93
      500
310
4411DBDD5C985D5915DA5D1A115919D95CD0340902404333333333333E3BF0000000000000F9010740901411070040501600405405064090741402480A1B50
1001
ACAD
1000
AcDbSavedByObjectVersion
1070
     0
  0
ACAD_PROXY_OBJECT
  5
38
102
{ACAD_REACTORS
330
2A
102
}
330
2A
100
AcDbProxyObject
 90
      499
 91
      501
 93
      444
310
42D31A5B995C185D1D195C9B90E409028333333333333E3BF0000000000000FB010790141107004050750841D405064090741402483A0350
1001
ACAD
1000
AcDbSavedByObjectVersion
1070
     0
  0
ACAD_PROXY_OBJECT
  5
33
102
{ACAD_REACTORS
330
2A
102
}
330
2A
100
AcDbProxyObject
 90
      499
 91
      501
 93
      420
310
425499585B1A5CDD1A58D08409028333333333333E3BF0000000000000FB01079019070040501508421405064090741402480A1B40
1001
ACAD
1000
AcDbSavedByObjectVersion
1070
     0
  0
ACAD_PROXY_OBJECT
  5
37
102
{ACAD_REACTORS
330
2A
102
}
330
2A
100
AcDbProxyObject
 90
      499
 91
      501
 93
      412
310
41D51A1A58DAD95B90D409028333333333333E3BF0000000000000FB010790141107004050150C41D405064090741402480A0350
1001
ACAD
1000
AcDbSavedByObjectVersion
1070
     0
  0
XRECORD
  5
AF
102
{ACAD_REACTORS
330
A6
102
}
330
A6
100
AcDbXrecord
 90
        0
  0
XRECORD
  5
C5
102
{ACAD_REACTORS
330
A6
102
}
330
A6
100
AcDbXrecord
1000
DSTYLE
1002
{
1070
   340
340
11
1002
}
  0
XRECORD
  5
B0
102
{ACAD_REACTORS
330
A6
102
}
330
A6
100
AcDbXrecord
  1
{405B7CA0-3DF8-7313-3EAB-3661249E505D}
  0
XRECORD
  5
A9
102
{ACAD_REACTORS
330
A6
102
}
330
A6
100
AcDbXrecord
  1

  0
XRECORD
  5
AE
102
{ACAD_REACTORS
330
A6
102
}
330
A6
100
AcDbXrecord
 90
        1
  0
XRECORD
  5
AB
102
{ACAD_REACTORS
330
A6
102
}
330
A6
100
AcDbXrecord
340
1A
  0
XRECORD
  5
AD
102
{ACAD_REACTORS
330
A6
102
}
330
A6
100
AcDbXrecord
 90
    10269
  0
XRECORD
  5
AC
102
{ACAD_REACTORS
330
A6
102
}
330
A6
100
AcDbXrecord
340
19
  0
XRECORD
  5
B2
102
{ACAD_REACTORS
330
A6
102
}
330
A6
100
AcDbXrecord
 40
0.0
  0
XRECORD
  5
B5
102
{ACAD_REACTORS
330
A6
102
}
330
A6
100
AcDbXrecord
340
0
  0
XRECORD
  5
BB
102
{ACAD_REACTORS
330
A6
102
}
330
A6
100
AcDbXrecord
 10
0.0
 20
0.0
 30
0.0
  0
XRECORD
  5
B7
102
{ACAD_REACTORS
330
A6
102
}
330
A6
100
AcDbXrecord
 10
0.0
 20
0.0
 30
0.0
  0
XRECORD
  5
BA
102
{ACAD_REACTORS
330
A6
102
}
330
A6
100
AcDbXrecord
 10
0.0
 20
0.0
 30
0.0
  0
XRECORD
  5
B8
102
{ACAD_REACTORS
330
A6
102
}
330
A6
100
AcDbXrecord
 10
0.0
 20
0.0
 30
0.0
  0
XRECORD
  5
B9
102
{ACAD_REACTORS
330
A6
102
}
330
A6
100
AcDbXrecord
 10
0.0
 20
0.0
 30
0.0
  0
XRECORD
  5
B6
102
{ACAD_REACTORS
330
A6
102
}
330
A6
100
AcDbXrecord
 10
0.0
 20
0.0
 30
0.0
  0
XRECORD
  5
B3
102
{ACAD_REACTORS
330
A6
102
}
330
A6
100
AcDbXrecord
340
0
  0
XRECORD
  5
B4
102
{ACAD_REACTORS
330
A6
102
}
330
A6
100
AcDbXrecord
 70
     0
  0
XRECORD
  5
AA
102
{ACAD_REACTORS
330
A6
102
}
330
A6
100
AcDbXrecord
  1

  0
XRECORD
  5
A7
102
{ACAD_REACTORS
330
A6
102
}
330
A6
100
AcDbXrecord
 90
        1
  0
XRECORD
  5
A8
102
{ACAD_REACTORS
330
A6
102
}
330
A6
100
AcDbXrecord
 90
       70
  0
XRECORD
  5
BE
102
{ACAD_REACTORS
330
A6
102
}
330
A6
100
AcDbXrecord
340
0
  0
XRECORD
  5
C4
102
{ACAD_REACTORS
330
A6
102
}
330
A6
100
AcDbXrecord
 10
0.0
 20
0.0
 30
0.0
  0
XRECORD
  5
C0
102
{ACAD_REACTORS
330
A6
102
}
330
A6
100
AcDbXrecord
 10
0.0
 20
0.0
 30
0.0
  0
XRECORD
  5
C3
102
{ACAD_REACTORS
330
A6
102
}
330
A6
100
AcDbXrecord
 10
0.0
 20
0.0
 30
0.0
  0
XRECORD
  5
C1
102
{ACAD_REACTORS
330
A6
102
}
330
A6
100
AcDbXrecord
 10
0.0
 20
0.0
 30
0.0
  0
XRECORD
  5
C2
102
{ACAD_REACTORS
330
A6
102
}
330
A6
100
AcDbXrecord
 10
0.0
 20
0.0
 30
0.0
  0
XRECORD
  5
BF
102
{ACAD_REACTORS
330
A6
102
}
330
A6
100
AcDbXrecord
 10
0.0
 20
0.0
 30
0.0
  0
XRECORD
  5
BC
102
{ACAD_REACTORS
330
A6
102
}
330
A6
100
AcDbXrecord
340
0
  0
XRECORD
  5
BD
102
{ACAD_REACTORS
330
A6
102
}
330
A6
100
AcDbXrecord
 70
     0
  0
XRECORD
  5
B1
102
{ACAD_REACTORS
330
A6
102
}
330
A6
100
AcDbXrecord
  1
{FAEB1C32-E019-11D5-929B-00C0DF256EC4}
  0
DICTIONARYVAR
  5
C9
102
{ACAD_REACTORS
330
C6
102
}
330
C6
100
DictionaryVariables
280
     0
  1
2
  0
DICTIONARYVAR
  5
CA
102
{ACAD_REACTORS
330
C6
102
}
330
C6
100
DictionaryVariables
280
     0
  1
1
  0
DICTIONARY
  5
CD
330
3D
100
AcDbDictionary
280
     1
  3
ACAD_XREC_ROUNDTRIP
360
CE
  0
DICTIONARY
  5
CB
330
3C
100
AcDbDictionary
280
     1
  3
ACAD_XREC_ROUNDTRIP
360
CC
  0
DICTIONARY
  5
CF
330
3E
100
AcDbDictionary
280
     1
  3
ACAD_XREC_ROUNDTRIP
360
D0
  0
XRECORD
  5
CE
102
{ACAD_REACTORS
330
CD
102
}
330
CD
100
AcDbXrecord
102
MATERIAL
148
0.0
149
0.0
149
0.0
 93
        0
 94
      127
282
     0
 72
     1
 77
     1
171
     1
175
     1
179
     1
273
     0
  0
XRECORD
  5
CC
102
{ACAD_REACTORS
330
CB
102
}
330
CB
100
AcDbXrecord
102
MATERIAL
148
0.0
149
0.0
149
0.0
 93
        0
 94
      127
282
     0
 72
     1
 77
     1
171
     1
175
     1
179
     1
273
     0
  0
XRECORD
  5
D0
102
{ACAD_REACTORS
330
CF
102
}
330
CF
100
AcDbXrecord
102
MATERIAL
148
0.0
149
0.0
149
0.0
 93
        0
 94
      127
282
     0
 72
     1
 77
     1
171
     1
175
     1
179
     1
273
     0
  0
ENDSEC
  0
EOF
