<svg id="Capa_2" data-name="Capa 2" xmlns="http://www.w3.org/2000/svg" viewBox="0 0 660 288"><defs><style>.cls-1,.cls-3{fill:none;stroke:#000;stroke-width:0.5px;}.cls-1{stroke-linecap:round;stroke-linejoin:round;}.cls-2{fill:#fff;}.cls-3{stroke-linecap:square;stroke-linejoin:bevel;}</style></defs><title>midi-solenoides</title><polygon class="cls-1" points="607.47 250.26 608.49 250.2 609.51 249.9 610.41 249.48 611.25 248.88 612.03 248.16 612.57 247.32 613.05 246.36 613.29 245.4 613.41 244.32 613.41 43.92 613.29 42.84 613.05 41.82 612.57 40.86 611.97 39.96 611.19 39.18 610.29 38.58 609.33 38.1 608.31 37.86 607.23 37.74 52.71 37.74 51.51 37.86 50.37 38.22 49.29 38.82 48.39 39.54 47.61 40.5 47.07 41.52 46.71 42.72 46.59 43.92 46.59 244.56 46.71 245.7 47.01 246.72 47.55 247.74 48.27 248.58 49.11 249.3 50.13 249.84 51.15 250.14 52.29 250.26 607.47 250.26"/><circle class="cls-1" cx="604.89" cy="241.74" r="5.64"/><circle class="cls-2" cx="604.89" cy="241.74" r="5.64"/><circle class="cls-1" cx="215.61" cy="233.28" r="4.68"/><circle class="cls-2" cx="215.61" cy="233.28" r="4.68"/><circle class="cls-3" cx="581.07" cy="108.12" r="4.68"/><circle class="cls-3" cx="55.11" cy="46.26" r="5.64"/><circle class="cls-3" cx="55.11" cy="241.74" r="5.64"/><circle class="cls-3" cx="604.89" cy="46.26" r="5.64"/><circle class="cls-3" cx="79.17" cy="108.12" r="4.68"/><circle class="cls-3" cx="124.83" cy="108.12" r="4.68"/><circle class="cls-3" cx="170.43" cy="108.12" r="4.68"/><circle class="cls-3" cx="216.09" cy="108.12" r="4.68"/><circle class="cls-3" cx="261.69" cy="108.12" r="4.68"/><circle class="cls-3" cx="307.29" cy="108.12" r="4.68"/><circle class="cls-3" cx="352.95" cy="108.12" r="4.68"/><circle class="cls-3" cx="398.55" cy="108.12" r="4.68"/><circle class="cls-3" cx="444.21" cy="108.12" r="4.68"/><circle class="cls-1" cx="489.81" cy="108.12" r="4.68"/><circle class="cls-3" cx="535.47" cy="108.12" r="4.68"/><circle class="cls-3" cx="215.61" cy="233.28" r="4.68"/><rect class="cls-3" x="280.37" y="223.28" width="78.21" height="8.46" rx="4.23" ry="4.23"/><rect class="cls-3" x="279.65" y="52.03" width="78.21" height="8.46" rx="4.23" ry="4.23"/><rect class="cls-3" x="501.87" y="223.15" width="78.21" height="8.46" rx="4.23" ry="4.23"/><rect class="cls-3" x="501.15" y="51.9" width="78.21" height="8.46" rx="4.23" ry="4.23"/><rect class="cls-3" x="74.01" y="223.15" width="78.21" height="8.46" rx="4.23" ry="4.23"/><rect class="cls-3" x="73.29" y="51.9" width="78.21" height="8.46" rx="4.23" ry="4.23"/></svg>