<svg xmlns="http://www.w3.org/2000/svg" viewBox="0 0 566.82 212.52"><defs><style>.cls-1,.cls-3{fill:none;stroke:#000;}.cls-1{stroke-linecap:round;stroke-linejoin:round;stroke-width:0;}.cls-2{fill:#fff;}.cls-3{stroke-linecap:square;stroke-linejoin:bevel;stroke-width:0.06px;}</style></defs><title>midi-solenoides</title><g id="Capa_2" data-name="Capa 2"><line class="cls-1" y1="6.18" y2="206.82"/><polyline class="cls-1" points="0 206.82 0.12 207.96 0.42 208.98 0.96 210 1.68 210.84 2.52 211.56 3.54 212.1 4.56 212.4 5.7 212.52"/><line class="cls-1" x1="5.7" y1="212.52" x2="560.88" y2="212.52"/><polyline class="cls-1" points="560.88 212.52 561.9 212.46 562.92 212.16 563.82 211.74 564.66 211.14 565.44 210.42 565.98 209.58 566.46 208.62 566.7 207.66 566.82 206.58"/><line class="cls-1" x1="566.82" y1="206.58" x2="566.82" y2="6.18"/><polyline class="cls-1" points="566.82 6.18 566.7 5.1 566.46 4.08 565.98 3.12 565.38 2.22 564.6 1.44 563.7 0.84 562.74 0.36 561.72 0.12 560.64 0"/><line class="cls-1" x1="560.64" x2="6.12"/><polyline class="cls-1" points="6.12 0 4.92 0.12 3.78 0.48 2.7 1.08 1.8 1.8 1.02 2.76 0.48 3.78 0.12 4.98 0 6.18"/><circle class="cls-1" cx="558.3" cy="204" r="5.64"/><circle class="cls-2" cx="558.3" cy="204" r="5.64"/><circle class="cls-1" cx="169.02" cy="195.54" r="4.68"/><circle class="cls-2" cx="169.02" cy="195.54" r="4.68"/><circle class="cls-3" cx="534.48" cy="70.38" r="4.68"/><circle class="cls-3" cx="8.52" cy="8.52" r="5.64"/><circle class="cls-3" cx="8.52" cy="204" r="5.64"/><circle class="cls-3" cx="558.3" cy="8.52" r="5.64"/><circle class="cls-3" cx="32.58" cy="70.38" r="4.68"/><circle class="cls-3" cx="78.24" cy="70.38" r="4.68"/><circle class="cls-3" cx="123.84" cy="70.38" r="4.68"/><circle class="cls-3" cx="169.5" cy="70.38" r="4.68"/><circle class="cls-3" cx="215.1" cy="70.38" r="4.68"/><circle class="cls-3" cx="260.7" cy="70.38" r="4.68"/><circle class="cls-3" cx="306.36" cy="70.38" r="4.68"/><circle class="cls-3" cx="351.96" cy="70.38" r="4.68"/><circle class="cls-3" cx="397.62" cy="70.38" r="4.68"/><circle class="cls-1" cx="443.22" cy="70.38" r="4.68"/><circle class="cls-3" cx="488.88" cy="70.38" r="4.68"/><circle class="cls-3" cx="169.02" cy="195.54" r="4.68"/><rect class="cls-3" x="233.78" y="185.54" width="78.21" height="8.46" rx="4.23" ry="4.23"/><rect class="cls-3" x="233.06" y="14.29" width="78.21" height="8.46" rx="4.23" ry="4.23"/><rect class="cls-3" x="455.28" y="185.41" width="78.21" height="8.46" rx="4.23" ry="4.23"/><rect class="cls-3" x="454.56" y="14.16" width="78.21" height="8.46" rx="4.23" ry="4.23"/><rect class="cls-3" x="27.42" y="185.41" width="78.21" height="8.46" rx="4.23" ry="4.23"/><rect class="cls-3" x="26.7" y="14.16" width="78.21" height="8.46" rx="4.23" ry="4.23"/></g></svg>